<?xml version="1.0" encoding="utf-8"?>
<!-- Generator: Adobe Illustrator 28.2.0, SVG Export Plug-In . SVG Version: 6.00 Build 0)  -->
<svg version="1.1" xmlns="http://www.w3.org/2000/svg" xmlns:xlink="http://www.w3.org/1999/xlink" x="0px" y="0px"
	 viewBox="0 0 1625.5 1625.5" style="enable-background:new 0 0 1625.5 1625.5;" xml:space="preserve">
<style type="text/css">
	.st0{display:none;opacity:0.46;fill:url(#Overlay_x5F_Full_00000147930795282639586640000008948137514396448958_);}
	.st1{fill:#383B41;}
	.st2{fill:#50B849;}
	.st3{fill:#54575F;}
	.st4{fill:url(#SVGID_1_);}
	.st5{opacity:0.32;fill:#FFFFFF;}
	.st6{fill:none;stroke:#91CA62;stroke-width:2;stroke-linecap:round;stroke-miterlimit:10;}
	.st7{fill:#FFFFFF;}
	.st8{fill:url(#SVGID_00000103252310030283270430000002520674857640866975_);}
</style>
<g id="Logo">
	<g id="Corshair_copy">
	</g>
</g>
<g id="Text">
	<g>
		<path class="st2" d="M376.34,1016.84c0,15.49-5.17,28.77-15.5,39.86c-10.33,11.08-23.42,16.63-39.25,16.63
			c-7.04,0-12.76-0.72-17.15-2.15c-4.4-1.43-8.03-3.17-10.89-5.23h-0.88v30.94c0,2.57,0.57,4.81,1.71,6.72
			c1.14,1.91,2.73,3.3,4.79,4.18c1.98,0.81,4.79,1.54,8.42,2.2c3.63,0.66,6.66,1.06,9.08,1.21v8.15h-79.6v-8.15
			c1.83-0.15,4.15-0.42,6.94-0.83c2.79-0.4,4.88-0.83,6.28-1.27c2.35-0.81,3.95-2.19,4.79-4.13c0.84-1.95,1.27-4.17,1.27-6.66
			V985.68c-0.22-2.42-0.79-4.55-1.71-6.39c-0.92-1.83-2.37-3.45-4.35-4.84c-1.47-0.95-3.41-1.74-5.83-2.37
			c-2.42-0.62-4.81-1.05-7.16-1.27v-8.04l53.73-2.86l1.65,1.43v12.22l0.88,0.22c4.84-4.92,10.21-8.73,16.11-11.45
			c5.9-2.71,11.75-4.07,17.54-4.07c15.17,0,27.16,5.38,35.95,16.13C371.95,985.15,376.34,999.3,376.34,1016.84z M336.82,1017.28
			c0-5.5-0.4-10.77-1.21-15.8c-0.81-5.03-2.23-9.52-4.28-13.49c-1.98-3.96-4.59-7.12-7.85-9.47c-3.26-2.35-7.23-3.52-11.91-3.52
			c-4.76,0-8.57,0.83-11.42,2.48c-2.86,1.65-5.34,3.8-7.47,6.44v62.43c0.44,1.47,1.28,3.36,2.53,5.67c1.25,2.31,2.49,4.17,3.74,5.56
			c1.83,1.98,3.92,3.45,6.26,4.4c2.34,0.95,4.91,1.43,7.69,1.43c7.25,0,13.05-3.91,17.41-11.73
			C334.64,1043.87,336.82,1032.4,336.82,1017.28z"/>
		<path class="st2" d="M514.96,969.28c-3.3,0.51-6.52,1.76-9.63,3.74c-3.12,1.98-5.71,5.06-7.76,9.25
			c-6.31,13.36-12.81,27.58-19.49,42.66c-6.68,15.08-14.09,31.4-22.24,48.94c-4.55,9.83-8.96,17.69-13.21,23.56
			c-4.26,5.87-8.26,10.39-12,13.54c-3.52,2.93-7.01,5.06-10.46,6.39c-3.45,1.32-6.94,1.98-10.46,1.98c-6.97,0-12.61-1.95-16.9-5.84
			c-4.29-3.89-6.44-8.26-6.44-13.1c0-2.06,0.24-3.96,0.72-5.73c0.48-1.76,1.48-3.6,3.03-5.5c1.17-1.62,2.99-2.99,5.45-4.13
			c2.46-1.14,5.23-1.71,8.31-1.71c4.11,0,8.03,1.43,11.77,4.29c3.74,2.86,7.63,6.83,11.66,11.89c2.42-2.43,5.41-6.05,8.97-10.87
			s6.18-9.77,7.87-14.85c-8.73-18.33-16.47-34.23-23.21-47.69c-6.75-13.46-14.3-28.48-22.66-45.05c-1.84-3.52-4.29-6.26-7.38-8.2
			c-3.08-1.94-6.35-3.14-9.8-3.58v-8.04h67.38v8.04c-2.49,0.07-5.36,0.62-8.62,1.65c-3.26,1.03-4.89,2.35-4.89,3.96
			c0,0.59,0.11,1.23,0.33,1.93c0.22,0.7,0.62,1.71,1.21,3.02c2.49,5.12,6.03,12.24,10.61,21.36c4.58,9.11,9.92,19.78,16,32.01
			c4.54-10.39,8.41-19.34,11.59-26.84c3.19-7.5,6.28-14.88,9.29-22.12c0.73-1.83,1.15-3.28,1.26-4.34c0.11-1.06,0.17-1.78,0.17-2.15
			c0-1.32-0.64-2.48-1.92-3.47c-1.28-0.99-2.8-1.85-4.56-2.59c-1.83-0.73-3.59-1.28-5.27-1.65c-1.69-0.37-3.08-0.62-4.17-0.77v-8.04
			h45.47V969.28z"/>
	</g>
	<g>
		<path class="st2" d="M705.76,1257.92h-84.67v-8.59c2.49-0.22,5.56-0.59,9.19-1.1c3.63-0.51,6.11-1.06,7.43-1.65
			c2.71-1.1,4.66-2.6,5.83-4.51c1.17-1.91,1.76-4.33,1.76-7.27v-116.71l-53.73,137.3h-13.87c-0.66-2.42-2.29-7.23-4.9-14.42
			c-2.61-7.19-4.72-12.95-6.33-17.29l-39.53-107.35v95.02c0,9.1,0.61,16.02,1.82,20.75c1.21,4.73,3.17,8.2,5.89,10.4
			c1.83,1.54,5.12,3.01,9.85,4.4c4.73,1.4,8.05,2.2,9.96,2.42v8.59h-67.16v-8.59c1.83-0.22,4.83-0.72,8.97-1.49
			c4.15-0.77,7.54-2.11,10.18-4.02c2.94-2.05,4.92-5.52,5.95-10.4c1.03-4.88,1.54-11.84,1.54-20.86v-77.4c0-4.7-0.59-8.6-1.76-11.73
			c-1.17-3.12-2.94-5.6-5.29-7.43c-2.94-2.27-5.95-3.74-9.03-4.4c-3.08-0.66-6.2-1.1-9.36-1.32v-8.59h71.99l38.51,102.94
			l32.46-83.54c1.1-3.09,2.16-6.76,3.19-11.02c1.03-4.26,1.58-7.05,1.65-8.38h69.21v8.59c-2.35,0.15-4.81,0.44-7.38,0.88
			c-2.57,0.44-5.03,1.03-7.38,1.76c-2.86,0.95-4.75,2.46-5.67,4.51c-0.92,2.06-1.38,4.33-1.38,6.83v110.65
			c0,2.64,0.46,4.86,1.38,6.66c0.92,1.8,2.81,3.36,5.67,4.68c1.47,0.66,3.87,1.29,7.21,1.87c3.34,0.59,5.93,0.99,7.76,1.21V1257.92z
			"/>
		<path class="st2" d="M866.18,1119.08c7.71,7.05,13.82,15.56,18.33,25.54c4.51,9.98,6.77,21.36,6.77,34.13
			c0,11.38-1.91,22.2-5.73,32.48c-3.82,10.28-9.32,19.12-16.51,26.53c-7.56,7.71-16.44,13.71-26.64,18
			c-10.2,4.29-22.35,6.44-36.44,6.44c-11.38,0-22.13-1.87-32.26-5.62c-10.13-3.74-19.05-9.17-26.75-16.29
			c-7.63-6.97-13.69-15.45-18.17-25.43c-4.48-9.98-6.72-21.1-6.72-33.36c0-12.77,2.18-24.35,6.55-34.74
			c4.37-10.39,10.37-19.28,18-26.7c7.56-7.27,16.53-12.86,26.92-16.79c10.39-3.93,21.45-5.89,33.2-5.89
			c11.67,0,22.63,1.91,32.87,5.73C849.83,1106.93,858.69,1112.25,866.18,1119.08z M837.88,1230.91c3.3-6.69,5.69-14.26,7.16-22.72
			c1.47-8.45,2.2-18.01,2.2-28.67c0-9.04-0.64-17.84-1.93-26.41c-1.28-8.56-3.47-16.19-6.55-22.88c-3.16-6.69-7.34-12.06-12.55-16.1
			c-5.21-4.04-11.71-6.07-19.49-6.07c-13.29,0-23.38,6.3-30.28,18.91c-6.9,12.61-10.35,30.42-10.35,53.43c0,9.78,0.75,19,2.26,27.68
			c1.5,8.67,3.87,16.25,7.1,22.71c3.3,6.54,7.49,11.63,12.55,15.27c5.06,3.64,11.3,5.46,18.72,5.46c7.27,0,13.5-1.84,18.72-5.51
			C830.65,1242.34,834.8,1237.31,837.88,1230.91z"/>
		<path class="st2" d="M1047.4,1117.76c9.54,6.24,17.25,14.55,23.12,24.94c5.87,10.39,8.81,23.1,8.81,38.15
			c0,13.21-2.62,24.72-7.87,34.52c-5.25,9.8-12.2,17.82-20.86,24.06c-8.81,6.24-18.81,10.88-30,13.93
			c-11.19,3.05-22.92,4.57-35.18,4.57h-78.72v-8.59c2.35-0.07,5.29-0.29,8.81-0.66c3.52-0.37,5.87-0.81,7.05-1.32
			c2.64-1.1,4.48-2.59,5.5-4.46c1.03-1.87,1.54-4.13,1.54-6.77v-110.76c0-2.49-0.48-4.75-1.43-6.77c-0.96-2.02-2.83-3.65-5.62-4.9
			c-2.79-1.25-5.74-2.09-8.86-2.53c-3.12-0.44-5.52-0.73-7.21-0.88v-8.59h83.13c8.88,0,18.39,1.14,28.52,3.41
			C1028.24,1107.37,1038.01,1111.59,1047.4,1117.76z M1024.94,1229.73c3.6-5.87,6.22-12.86,7.87-20.97
			c1.65-8.11,2.48-17.45,2.48-28.02c0-10.35-1.1-19.78-3.3-28.3c-2.2-8.51-5.43-15.78-9.69-21.8c-4.26-6.02-9.56-10.68-15.91-13.98
			c-6.35-3.3-13.56-4.95-21.63-4.95c-2.57,0-5.49,0.06-8.75,0.17c-3.27,0.11-5.71,0.2-7.32,0.28v118.58c0,2.64,0.35,4.97,1.05,6.99
			c0.7,2.02,1.89,3.8,3.58,5.34c1.69,1.54,3.76,2.74,6.22,3.58c2.46,0.84,5.67,1.27,9.63,1.27c8.29,0,15.41-1.54,21.36-4.62
			C1016.46,1240.19,1021.27,1235.68,1024.94,1229.73z"/>
		<path class="st2" d="M1233.25,1141.54h-8.37c-2.13-5.92-5.8-11.92-11.01-17.99c-5.21-6.07-10.39-9.65-15.52-10.75
			c-2.2-0.51-5.27-0.82-9.19-0.93c-3.93-0.11-7.17-0.17-9.74-0.17h-22.68v60.23h16.07c4.04,0,7.71-0.48,11.01-1.43
			c3.3-0.95,6.31-2.79,9.03-5.5c1.69-1.69,3.39-4.66,5.12-8.92c1.72-4.26,2.84-7.96,3.36-11.12h8.37v65.18h-8.37
			c-0.44-3.08-1.56-6.95-3.36-11.62c-1.8-4.66-3.51-7.87-5.12-9.63c-2.42-2.64-5.28-4.46-8.59-5.45c-3.3-0.99-7.12-1.49-11.45-1.49
			h-16.07v45.03c0,4.7,0.35,8.42,1.05,11.18c0.7,2.75,2,4.86,3.91,6.33c1.83,1.4,4.35,2.31,7.54,2.75
			c3.19,0.44,7.54,0.66,13.05,0.66c2.57,0,5.65-0.04,9.25-0.11c3.6-0.07,6.75-0.29,9.47-0.66c3.08-0.37,5.96-0.92,8.64-1.65
			c2.68-0.73,4.68-1.8,6-3.19c3.52-3.6,7.49-9.08,11.89-16.46c4.4-7.38,7.3-12.9,8.7-16.57h8.04l-2.97,48.66h-146.54v-8.59
			c2.05-0.15,4.84-0.44,8.37-0.88s6.02-0.95,7.49-1.54c2.79-1.17,4.66-2.66,5.62-4.46c0.95-1.8,1.43-4.09,1.43-6.88v-110.21
			c0-2.64-0.4-4.83-1.21-6.55c-0.81-1.72-2.75-3.28-5.84-4.68c-1.91-0.88-4.59-1.69-8.04-2.42c-3.45-0.73-6.06-1.21-7.82-1.43v-8.59
			h138.51V1141.54z"/>
		<path class="st2" d="M1404.35,1207.82l-3.08,50.1h-143.9v-8.59c2.57-0.22,5.58-0.57,9.03-1.05c3.45-0.48,5.73-0.94,6.83-1.38
			c2.64-1.03,4.48-2.46,5.5-4.29c1.03-1.83,1.54-4.18,1.54-7.05v-110.21c0-2.64-0.4-4.83-1.21-6.55c-0.81-1.72-2.75-3.28-5.84-4.68
			c-2.28-1.03-5.01-1.85-8.2-2.48c-3.19-0.62-5.74-1.08-7.65-1.38v-8.59h85.77v8.59c-2.35,0.22-5.12,0.53-8.31,0.94
			c-3.19,0.4-5.96,0.97-8.31,1.71c-2.86,0.95-4.77,2.44-5.73,4.46c-0.95,2.02-1.43,4.31-1.43,6.88v102.72
			c0,4.84,0.33,8.66,0.99,11.45c0.66,2.79,1.94,4.84,3.85,6.17c1.91,1.4,4.57,2.29,7.98,2.7c3.41,0.4,8.13,0.61,14.15,0.61
			c5.87,0,11.58-0.35,17.12-1.05c5.54-0.7,9.52-2.22,11.95-4.57c3.74-3.74,7.58-9.01,11.5-15.8c3.93-6.79,7.06-13.01,9.41-18.66
			H1404.35z"/>
	</g>
	<g>
		<path class="st3" d="M674.86,952.42h-8.37c-2.13-5.92-5.8-11.92-11.01-17.99c-5.21-6.07-10.39-9.65-15.52-10.75
			c-2.2-0.51-5.27-0.82-9.19-0.93c-3.93-0.11-7.17-0.17-9.74-0.17h-22.68v60.23h16.07c4.04,0,7.71-0.48,11.01-1.43
			c3.3-0.95,6.31-2.79,9.03-5.5c1.69-1.69,3.39-4.66,5.12-8.92c1.72-4.26,2.84-7.96,3.36-11.12h8.37v65.18h-8.37
			c-0.44-3.08-1.56-6.95-3.36-11.62c-1.8-4.66-3.51-7.87-5.12-9.63c-2.42-2.64-5.28-4.46-8.59-5.45c-3.3-0.99-7.12-1.49-11.45-1.49
			h-16.07v45.03c0,4.7,0.35,8.42,1.05,11.18c0.7,2.75,2,4.86,3.91,6.33c1.83,1.4,4.35,2.31,7.54,2.75
			c3.19,0.44,7.54,0.66,13.05,0.66c2.57,0,5.65-0.04,9.25-0.11c3.6-0.07,6.75-0.29,9.47-0.66c3.08-0.37,5.96-0.92,8.64-1.65
			c2.68-0.73,4.68-1.8,6-3.19c3.52-3.6,7.49-9.08,11.89-16.46c4.4-7.38,7.3-12.9,8.7-16.57h8.04l-2.97,48.66H536.35v-8.59
			c2.05-0.15,4.84-0.44,8.37-0.88s6.02-0.95,7.49-1.54c2.79-1.17,4.66-2.66,5.62-4.46c0.95-1.8,1.43-4.09,1.43-6.88V936.24
			c0-2.64-0.4-4.83-1.21-6.55c-0.81-1.72-2.75-3.28-5.84-4.68c-1.91-0.88-4.59-1.69-8.04-2.42c-3.45-0.73-6.06-1.21-7.82-1.43v-8.59
			h138.51V952.42z"/>
		<path class="st3" d="M837.48,952.42h-8.37c-2.13-5.92-5.8-11.92-11.01-17.99c-5.21-6.07-10.39-9.65-15.52-10.75
			c-2.2-0.51-5.27-0.82-9.19-0.93c-3.93-0.11-7.17-0.17-9.74-0.17h-22.68v60.23h16.07c4.04,0,7.71-0.48,11.01-1.43
			c3.3-0.95,6.31-2.79,9.03-5.5c1.69-1.69,3.39-4.66,5.12-8.92c1.72-4.26,2.84-7.96,3.36-11.12h8.37v65.18h-8.37
			c-0.44-3.08-1.56-6.95-3.36-11.62c-1.8-4.66-3.51-7.87-5.12-9.63c-2.42-2.64-5.28-4.46-8.59-5.45c-3.3-0.99-7.12-1.49-11.45-1.49
			h-16.07v45.03c0,4.7,0.35,8.42,1.05,11.18c0.7,2.75,2,4.86,3.91,6.33c1.83,1.4,4.35,2.31,7.54,2.75
			c3.19,0.44,7.54,0.66,13.05,0.66c2.57,0,5.65-0.04,9.25-0.11c3.6-0.07,6.75-0.29,9.47-0.66c3.08-0.37,5.96-0.92,8.64-1.65
			c2.68-0.73,4.68-1.8,6-3.19c3.52-3.6,7.49-9.08,11.89-16.46c4.4-7.38,7.3-12.9,8.7-16.57h8.04l-2.97,48.66H698.97v-8.59
			c2.05-0.15,4.84-0.44,8.37-0.88s6.02-0.95,7.49-1.54c2.79-1.17,4.66-2.66,5.62-4.46c0.95-1.8,1.43-4.09,1.43-6.88V936.24
			c0-2.64-0.4-4.83-1.21-6.55c-0.81-1.72-2.75-3.28-5.84-4.68c-1.91-0.88-4.59-1.69-8.04-2.42c-3.45-0.73-6.06-1.21-7.82-1.43v-8.59
			h138.51V952.42z"/>
		<path class="st3" d="M1008.57,1018.7l-3.08,50.1h-143.9v-8.59c2.57-0.22,5.58-0.57,9.03-1.05c3.45-0.48,5.73-0.94,6.83-1.38
			c2.64-1.03,4.48-2.46,5.5-4.29c1.03-1.83,1.54-4.18,1.54-7.05V936.24c0-2.64-0.4-4.83-1.21-6.55c-0.81-1.72-2.75-3.28-5.84-4.68
			c-2.28-1.03-5.01-1.85-8.2-2.48c-3.19-0.62-5.74-1.08-7.65-1.38v-8.59h85.77v8.59c-2.35,0.22-5.12,0.53-8.31,0.94
			c-3.19,0.4-5.96,0.97-8.31,1.71c-2.86,0.95-4.77,2.44-5.73,4.46c-0.95,2.02-1.43,4.31-1.43,6.88v102.72
			c0,4.84,0.33,8.66,0.99,11.45c0.66,2.79,1.94,4.84,3.85,6.17c1.91,1.4,4.57,2.29,7.98,2.7c3.41,0.4,8.13,0.61,14.15,0.61
			c5.87,0,11.58-0.35,17.12-1.05c5.54-0.7,9.52-2.22,11.95-4.57c3.74-3.74,7.58-9.01,11.5-15.8c3.93-6.79,7.06-13.01,9.41-18.66
			H1008.57z"/>
		<path class="st3" d="M1081.68,1073.09c-9.54,0-18.44-1.19-26.7-3.58c-8.26-2.38-15.25-5.19-20.97-8.42l-7.6,7.71h-9.36
			l-1.43-56.48h9.47c2.13,5.37,4.84,11.03,8.15,16.99c3.3,5.96,7.12,11.29,11.45,16c4.48,4.93,9.49,8.94,15.03,12.03
			c5.54,3.09,12.02,4.63,19.43,4.63c9.98,0,17.63-2.44,22.96-7.33c5.32-4.89,7.98-11.04,7.98-18.46c0-6.1-2.26-11.22-6.77-15.37
			c-4.51-4.15-11.5-7.74-20.97-10.76c-6.17-1.99-11.84-3.83-17.01-5.53s-10.04-3.43-14.59-5.2c-10.5-4.19-18.3-10.18-23.4-17.97
			c-5.1-7.79-7.65-16.5-7.65-26.13c0-6.1,1.32-11.96,3.96-17.58c2.64-5.62,6.5-10.67,11.56-15.16c4.84-4.19,11.05-7.61,18.61-10.25
			c7.56-2.65,15.78-3.97,24.66-3.97c8.66,0,16.77,1.21,24.33,3.63c7.56,2.42,13.5,4.84,17.84,7.27l6.72-6.61h9.58l0.88,53.29h-9.47
			c-2.2-5.74-4.79-11.61-7.76-17.6s-6.11-10.98-9.41-14.95c-3.6-4.27-7.74-7.67-12.44-10.21c-4.7-2.54-10.2-3.81-16.51-3.81
			c-7.93,0-14.41,2.24-19.43,6.73c-5.03,4.48-7.54,10.03-7.54,16.65c0,6.25,2.18,11.36,6.55,15.33c4.37,3.97,11.18,7.46,20.42,10.48
			c5.43,1.84,10.97,3.67,16.62,5.51c5.65,1.84,10.68,3.6,15.08,5.29c10.64,4.12,18.73,9.8,24.28,17.03
			c5.54,7.24,8.31,16.22,8.31,26.95c0,6.76-1.58,13.3-4.73,19.63c-3.16,6.32-7.42,11.58-12.77,15.77
			c-5.87,4.63-12.66,8.2-20.37,10.69S1091.95,1073.09,1081.68,1073.09z"/>
	</g>
</g>
<g id="Layer_4">
	<g>
		<path class="st2" d="M747.96,395.28c-0.06,2.97-0.01,5.94-0.02,8.9c-0.06,24.7,0.67,49.39,0.86,74.09
			c0.14,18.16,0.25,36.34,0.65,54.5c0.36,16.27,0.33,32.54,0.73,48.8c0.32,12.82,0.29,25.65,0.68,38.47
			c0.52,17.22,0.83,34.44,1.4,51.65c0.46,14.14,1.26,28.27,2.14,42.39c0.37,5.96,1.34,11.88,2.11,17.81
			c0.11,0.86,0.61,1.7,1.05,2.49c1.11,1.99,2.75,2.12,3.43-0.03c0.78-2.43,3.03-3.89,3.5-6.37l0.53,1.07
			c2.13,2.09,3.51,4.48,4.39,7.45c1.11,3.73,3.23,7.11,5.91,10.21c1.9-1.27,3.35-2.57,4.02-4.81c0.45-1.48,1.59-3.83,3.39-2.72
			c1.96,1.22,4.5,2.55,5.05,5.19c1.63,7.84,4.99,15.12,7.27,22.76c0.37,1.23,1.86,2.22,3.28,3.14c2.49,1.62,4.58,2.22,7.3,1.54
			c0.77-0.19,1.43,0.09,2.16,0.65c3.09,2.35,5.42,2.11,7.75-1.06c1.42-1.93,3.44-3.46,5.35-3c3.59,0.86,7.79-0.11,10.43,3.1
			c1.94-0.36,2.72-1.74,3.44-2.94c0.66-1.09,1.43-1.59,2.55-1.36c2.24,0.44,4.3-0.27,6.43-0.69c0.76-0.15,1.65-0.04,2.52,0.1
			c3.45,0.59,5.55,2.58,7.48,5.16c0.61,0.81,1.3,2.1,2.82,1.11c2.77-1.81,5.8-1.59,8.9-1.1c2.72,0.42,5.82,0.32,8.1,1.3
			c5.23,2.24,10.43,3.69,16.09,4.3c1.83,0.2,4.97,0.17,5.97,2.31c1.55,3.32,4.12,5.61,6.51,8.14c2.18-0.56,3.75-0.47,5.48,1.68
			c2.57,3.2,5.52,6.38,10.21,6.74c1.21,0.09,2.66,0.47,3.52,1.25c3.13,2.87,7.21,3.96,10.67,6.1c3.6,2.22,8.12,2.27,11.25,5.83
			c2.28,2.58,8.13-0.28,9.16-3.78c1.38-4.67,1.67-9.53,1.97-14.27c0.95-14.94,2.06-29.89,2.26-44.87c0.03-1.91-0.06-3.86,1.44-5.33
			c1.05-1.03,1.08-2.23,1.08-3.57c0-5.58-0.64-11.18,0.33-16.74l0.36,19.59c1.84,1.22,1.85,3.07,1.79,4.99
			c-0.09,2.89,0.44,5.61,2.69,8.06c2.49-3.63,5.54-6.74,6.62-11.25c1.19-4.95,1.99-9.99,2.63-14.99c0.36-2.83,2.55-4.94,2.3-7.82
			l0.36,2.14c4.46,3.01,4.36,8.07,5.26,12.48c2.26,11.18,2.45,22.68,5.02,33.83c0.38,1.66,2.16,2.72,2.36,4.39l0.19-1.55
			c2.28-0.88,2.8-3.04,3.15-5c1.55-8.53,2.8-17.11,4.4-25.62c0.44-2.36,0.2-5.21,2.78-6.78l0.36-5.34c0.19,3.01,0.8,5.75,1.72,8.57
			c1.92,5.89,2.39,12.1,3.59,18.15c1.37,6.91,2.32,13.96,8.43,18.99c2.13-1.68,3.77-3.86,4.36-6.54c0.6-2.73,2.78-2.9,4.7-3.52
			c1.8-0.58,2.8,0.98,3.12,2.13c1.83,6.71,7.91,9.96,11.84,14.94c0.44,0.56,1.06,0.85,1.78,0.71c5.37-1.07,11.93,0.81,14.98-6.04
			c0.13-0.29,0.42-0.55,0.7-0.71c6.35-3.44,8.52-10.24,11.84-15.84c1.95-3.28,4.44-2.55,6.71-3.3c0.05-0.02,0.09-0.02,0.13-0.03
			c19.56-38.24,30.6-81.56,30.6-127.46c0-154.77-125.47-280.24-280.24-280.24c-27.03,0-53.17,3.84-77.9,10.98v31.54
			C747.75,391.6,748,393.35,747.96,395.28z"/>
		<path class="st2" d="M567.29,727.3c1.71,1.62,3.28,1.41,4.99,0.08c2.49,2.34,3.95,6.1,8.23,5.23v-1.78
			c0.44,3.96,3.7,5.94,6.06,8.55c0.11,0.12,0.28,0.36,0.35,0.34c6.31-2.06,7.47,4.06,10.64,6.85c1.54,1.36,2.86,2.96,5.03,2.38
			c3.07-0.82,4.04,2.3,6.35,3.12c3.97,1.4,7.83,3.59,10.67,7.24c2.08-1.67,3.69-1.02,5.46,0.35c4.43,3.43,8.9,6.97,13.64,9.79
			c4.25,2.52,8.75,5.11,13.76,6.29c1.85,0.44,2.79,2.57,4.32,3.07c4.26,1.38,7.78,3.51,10.31,7.24c0.48,0.7,1.38,0.74,2.13,0.88
			c6.02,1.14,11.06,4.09,15.72,7.97c1.81,1.5,4.18,2.35,6.72,1.49v-1.42c0.62,2.2,2.12,3.63,3.87,5.04c2.06,1.66,4.6,1.47,6.86,2.32
			c5.24,1.97,8.28,2.87,9.91-4.87c1.39-6.57,1.65-13.27,2.28-19.93c0.99-10.44,1.18-20.92,1.93-31.36
			c0.74-10.42,0.75-20.89,1.17-31.34c0.56-14.01,0.41-28.02,0.97-42.04c0.52-13.04,0.2-26.12,0.53-39.18
			c0.08-2.99-0.73-6.43,2.05-8.91l2.14,6.41c1.09-2.9-1.18-5.27-1.29-7.84c-0.23-5.32-0.59-10.7,0.22-16.02v-23.15
			c1.03-3.87-0.32-7.88,0.71-11.75l-0.79-31.48c-0.04-0.4-0.05-0.8-0.03-1.2l0.03,1.2c0.3,3.16,2.24,6.32,1.73,9.5
			c-0.36,2.22,1.1,5.9,0.08,10.22l0.88-2.87c1.59-1.31,0.98-1.61,0.97-3.53c-0.04-8.31,0.01-16.62-0.04-24.93
			c-0.01-1.92,0.21-3.68,1.8-4.99l0.36-0.71c0.12-9.62,0.31-19.23,0.34-28.85c0.05-19.23,0-38.47,0.02-57.7
			c0.01-11.04-0.68-22.09,0.35-33.13l-0.36,120.4c2.59,2.38,2.03,5.64,2.08,8.55c0.25,15.2,0.32,30.39,0.4,45.59
			c0.01,1.92,0.21,3.68,1.8,4.99l0.36,0.71c0,18.05,0,36.09,0,54.14l0.36-54.85c1.17-1.04,1.56-2.37,1.84-3.91
			c0.63-3.44,0.46-6.92,0.54-10.34c0.3-11.87,0.57-23.75,0.68-35.62c0.16-17.46,1.14-34.9,0.91-52.36c-0.03-2.37-0.4-5.11,1.11-7.05
			c1.38-1.77,1.04-3.56,1.38-5.41c0.93-5.09-1.09-10.6,2.24-15.34c0.24-0.35,0.18-0.93,0.2-1.41c0.25-7.36,0.72-14.72,0.66-22.08
			c-0.1-11.77,0.68-23.51,0.75-35.26c0.01-1.72,0.49-3.15,1.8-4.27l0.36-0.71c-0.03-6.53-0.35-13.08-0.23-19.59
			c0.06-3.7,0.1-7.4,0.12-11.1C629.06,392.8,543.82,500.45,543.82,628.01c0,32.88,5.68,64.43,16.08,93.74
			c0.75,0.93,1.42,1.94,2.08,3.01C563.22,726.74,565.85,725.93,567.29,727.3z"/>
		<path class="st2" d="M722.22,540.83l-0.03-1.2C722.16,540.03,722.18,540.43,722.22,540.83z"/>
		<path class="st2" d="M988.92,772.26l-0.16,1.3C988.92,773.08,988.96,772.66,988.92,772.26z"/>
	</g>
</g>
</svg>
