<?xml version="1.0" encoding="utf-8"?>
<!-- Generator: Adobe Illustrator 28.2.0, SVG Export Plug-In . SVG Version: 6.00 Build 0)  -->
<svg version="1.1" xmlns="http://www.w3.org/2000/svg" xmlns:xlink="http://www.w3.org/1999/xlink" x="0px" y="0px"
	 viewBox="0 0 1625.5 1625.5" style="enable-background:new 0 0 1625.5 1625.5;" xml:space="preserve">
<style type="text/css">
	.st0{display:none;opacity:0.46;fill:url(#Overlay_x5F_Full_00000173874914913731859540000016577993691287629493_);}
	.st1{fill:#383B41;}
	.st2{fill:#50B849;}
	.st3{fill:#54575F;}
	.st4{fill:url(#SVGID_1_);}
	.st5{opacity:0.32;fill:#FFFFFF;}
	.st6{fill:none;stroke:#91CA62;stroke-width:2;stroke-linecap:round;stroke-miterlimit:10;}
	.st7{fill:#FFFFFF;}
	.st8{fill:url(#SVGID_00000119817705565020982010000002077654265832677259_);}
</style>
<g id="Logo">
	<g id="Corshair_copy">
	</g>
</g>
<g id="Text">
	<g>
		<path class="st2" d="M663,716.82l-0.05-1.81C662.92,715.62,662.95,716.22,663,716.82z"/>
	</g>
	<g>
		<path class="st3" d="M812.75,347.77c256.8,0,464.98,208.18,464.98,464.98s-208.18,464.98-464.98,464.98
			s-464.98-208.18-464.98-464.98S555.95,347.77,812.75,347.77 M812.75,322.88c-66.12,0-130.28,12.96-190.69,38.51
			c-58.34,24.67-110.72,59.99-155.7,104.97s-80.3,97.37-104.97,155.7c-25.55,60.41-38.51,124.57-38.51,190.69
			c0,66.12,12.96,130.28,38.51,190.69c24.67,58.34,59.99,110.72,104.97,155.7s97.37,80.3,155.7,104.97
			c60.41,25.55,124.57,38.51,190.69,38.51s130.28-12.96,190.69-38.51c58.34-24.67,110.72-59.99,155.7-104.97
			c44.98-44.98,80.3-97.37,104.97-155.7c25.55-60.41,38.51-124.57,38.51-190.69c0-66.12-12.96-130.28-38.51-190.69
			c-24.67-58.34-59.99-110.72-104.97-155.7c-44.98-44.98-97.37-80.3-155.7-104.97C943.03,335.84,878.87,322.88,812.75,322.88
			L812.75,322.88z"/>
	</g>
</g>
<g id="Layer_4">
	<g>
		<path class="st2" d="M686.47,426.6c-0.11,4.92-0.02,9.85-0.03,14.77c-0.1,40.98,1.12,81.95,1.43,122.93
			c0.23,30.14,0.42,60.29,1.08,90.42c0.59,26.99,0.55,53.99,1.21,80.97c0.52,21.28,0.49,42.57,1.14,63.83
			c0.87,28.56,1.38,57.14,2.32,85.7c0.77,23.46,2.08,46.9,3.56,70.33c0.62,9.89,2.22,19.71,3.51,29.55
			c0.19,1.43,1.01,2.83,1.74,4.13c1.84,3.31,4.56,3.51,5.7-0.05c1.29-4.02,5.03-6.45,5.81-10.58l0.89,1.77
			c3.53,3.47,5.82,7.44,7.29,12.35c1.84,6.18,5.35,11.79,9.81,16.94c3.15-2.1,5.56-4.26,6.68-7.98c0.74-2.46,2.64-6.36,5.62-4.51
			c3.25,2.02,7.46,4.23,8.37,8.62c2.71,13.01,8.28,25.1,12.07,37.76c0.61,2.03,3.08,3.68,5.45,5.22c4.14,2.69,7.6,3.68,12.11,2.56
			c1.28-0.32,2.38,0.15,3.59,1.07c5.13,3.91,8.99,3.49,12.86-1.76c2.36-3.2,5.71-5.74,8.89-4.98c5.96,1.43,12.92-0.18,17.31,5.14
			c3.21-0.6,4.51-2.89,5.71-4.88c1.1-1.82,2.37-2.63,4.23-2.26c3.71,0.74,7.13-0.44,10.66-1.14c1.27-0.25,2.74-0.07,4.18,0.17
			c5.73,0.97,9.22,4.28,12.42,8.56c1.01,1.35,2.16,3.48,4.68,1.84c4.6-3.01,9.63-2.64,14.77-1.83c4.51,0.71,9.65,0.54,13.44,2.16
			c8.68,3.72,17.31,6.11,26.7,7.13c3.03,0.33,8.25,0.28,9.91,3.84c2.57,5.51,6.84,9.32,10.8,13.51c3.62-0.93,6.23-0.78,9.09,2.79
			c4.27,5.32,9.15,10.59,16.93,11.18c2.01,0.15,4.42,0.78,5.83,2.08c5.19,4.76,11.96,6.57,17.71,10.13
			c5.97,3.69,13.47,3.77,18.67,9.67c3.78,4.28,13.48-0.47,15.2-6.27c2.29-7.75,2.76-15.81,3.27-23.67
			c1.58-24.79,3.41-49.59,3.75-74.45c0.04-3.17-0.1-6.4,2.39-8.84c1.74-1.7,1.79-3.7,1.79-5.93c0-9.26-1.06-18.55,0.55-27.78
			l0.59,32.51c3.05,2.02,3.07,5.09,2.97,8.27c-0.14,4.79,0.72,9.31,4.46,13.37c4.14-6.02,9.2-11.19,10.99-18.67
			c1.97-8.22,3.3-16.57,4.37-24.88c0.6-4.7,4.23-8.2,3.81-12.97l0.59,3.55c7.4,4.99,7.24,13.39,8.72,20.71
			c3.75,18.55,4.06,37.63,8.32,56.14c0.63,2.75,3.58,4.51,3.91,7.28l0.32-2.58c3.79-1.46,4.64-5.04,5.23-8.29
			c2.56-14.15,4.64-28.39,7.29-42.52c0.74-3.92,0.33-8.65,4.61-11.25l0.59-8.87c0.31,5,1.33,9.53,2.86,14.22
			c3.19,9.77,3.96,20.08,5.96,30.12c2.28,11.47,3.84,23.16,13.99,31.51c3.53-2.79,6.25-6.41,7.23-10.86c1-4.52,4.61-4.81,7.81-5.84
			c2.98-0.96,4.65,1.63,5.17,3.54c3.03,11.14,13.13,16.52,19.65,24.78c0.74,0.93,1.76,1.41,2.95,1.17
			c8.91-1.78,19.8,1.34,24.85-10.02c0.21-0.48,0.7-0.92,1.17-1.17c10.54-5.71,14.13-16.99,19.65-26.28
			c3.23-5.44,7.37-4.23,11.14-5.47c0.08-0.03,0.15-0.04,0.22-0.06c32.46-63.44,50.77-135.32,50.77-211.48
			c0-256.8-208.18-464.98-464.98-464.98c-44.86,0-88.22,6.37-129.26,18.22v52.33C686.13,420.49,686.54,423.4,686.47,426.6z"/>
		<path class="st2" d="M386.71,977.48c2.83,2.69,5.44,2.34,8.28,0.13c4.14,3.89,6.56,10.12,13.65,8.67v-2.96
			c0.74,6.58,6.14,9.85,10.05,14.18c0.19,0.21,0.46,0.6,0.58,0.56c10.48-3.42,12.39,6.73,17.65,11.36c2.56,2.25,4.75,4.91,8.34,3.95
			c5.09-1.37,6.71,3.82,10.54,5.17c6.59,2.32,12.99,5.96,17.71,12.01c3.46-2.78,6.13-1.7,9.06,0.57
			c7.35,5.69,14.76,11.56,22.64,16.24c7.05,4.18,14.52,8.49,22.83,10.44c3.07,0.72,4.62,4.27,7.16,5.09
			c7.06,2.29,12.91,5.82,17.1,12.01c0.79,1.16,2.29,1.23,3.53,1.46c9.98,1.9,18.35,6.79,26.09,13.23c3,2.5,6.94,3.89,11.15,2.46
			v-2.36c1.02,3.66,3.52,6.02,6.42,8.37c3.41,2.76,7.64,2.44,11.38,3.85c8.69,3.27,13.74,4.76,16.45-8.09
			c2.3-10.9,2.74-22.01,3.78-33.07c1.64-17.33,1.96-34.7,3.2-52.04c1.23-17.29,1.25-34.67,1.93-52c0.92-23.24,0.68-46.5,1.61-69.75
			c0.87-21.64,0.34-43.34,0.89-65c0.13-4.96-1.2-10.67,3.4-14.78l3.55,10.64c1.8-4.8-1.95-8.75-2.14-13.01
			c-0.38-8.83-0.98-17.75,0.36-26.59v-38.42c1.71-6.42-0.53-13.08,1.18-19.5l-1.3-52.23c-0.06-0.66-0.09-1.32-0.05-1.99l0.05,1.99
			c0.49,5.25,3.72,10.49,2.86,15.76c-0.6,3.69,1.83,9.79,0.13,16.95l1.46-4.77c2.64-2.17,1.63-2.67,1.61-5.86
			c-0.07-13.79,0.01-27.58-0.06-41.37c-0.02-3.19,0.35-6.11,2.99-8.27l0.59-1.18c0.2-15.96,0.52-31.91,0.56-47.87
			c0.09-31.91,0.01-63.83,0.03-95.74c0.02-18.32-1.13-36.66,0.58-54.96l-0.59,199.76c4.29,3.95,3.36,9.35,3.44,14.19
			c0.42,25.21,0.52,50.43,0.66,75.65c0.02,3.19,0.35,6.11,2.99,8.27l0.59,1.18c0,29.94,0,59.89,0,89.83l0.59-91.02
			c1.94-1.73,2.58-3.92,3.05-6.48c1.05-5.7,0.76-11.48,0.9-17.16c0.49-19.7,0.94-39.41,1.12-59.1c0.27-28.97,1.9-57.9,1.51-86.88
			c-0.05-3.93-0.66-8.48,1.85-11.7c2.29-2.94,1.73-5.91,2.29-8.97c1.54-8.44-1.8-17.59,3.72-25.46c0.4-0.57,0.3-1.55,0.33-2.34
			c0.41-12.21,1.2-24.43,1.1-36.64c-0.16-19.52,1.14-39,1.25-58.51c0.02-2.85,0.82-5.22,2.98-7.09l0.59-1.18
			c-0.05-10.84-0.58-21.7-0.39-32.5c0.11-6.14,0.16-12.28,0.2-18.41C489.2,422.49,347.77,601.09,347.77,812.75
			c0,54.55,9.43,106.9,26.69,155.53c1.24,1.54,2.35,3.21,3.46,4.99C379.96,976.57,384.32,975.22,386.71,977.48z"/>
		<path class="st7" d="M812.75,1277.73c180.65,0,337.23-103.02,414.22-253.5c-0.08,0.02-0.15,0.03-0.22,0.06
			c-3.77,1.25-7.91,0.03-11.14,5.47c-5.52,9.3-9.11,20.57-19.65,26.28c-0.47,0.25-0.96,0.7-1.17,1.17
			c-5.05,11.37-15.94,8.25-24.85,10.02c-1.18,0.24-2.21-0.24-2.95-1.17c-6.52-8.26-16.62-13.64-19.65-24.78
			c-0.52-1.9-2.19-4.49-5.17-3.54c-3.19,1.03-6.81,1.32-7.81,5.84c-0.98,4.44-3.7,8.07-7.23,10.86
			c-10.15-8.35-11.71-20.04-13.99-31.51c-2-10.04-2.77-20.35-5.96-30.12c-1.53-4.68-2.55-9.22-2.86-14.22l-0.59,8.87
			c-4.29,2.6-3.88,7.33-4.61,11.25c-2.65,14.13-4.73,28.37-7.29,42.52c-0.59,3.25-1.45,6.83-5.23,8.29l-0.32,2.58
			c0.08,0.65,0.01,1.36-0.27,2.15l0.27-2.15c-0.33-2.77-3.28-4.53-3.91-7.28c-4.26-18.51-4.58-37.59-8.32-56.14
			c-1.48-7.33-1.32-15.73-8.72-20.71l-0.59-3.55c0.42,4.77-3.21,8.26-3.81,12.97c-1.07,8.31-2.4,16.66-4.37,24.88
			c-1.79,7.47-6.85,12.64-10.99,18.67c-3.74-4.06-4.6-8.58-4.46-13.37c0.09-3.18,0.08-6.25-2.97-8.27l-0.59-32.51
			c-1.61,9.23-0.55,18.52-0.55,27.78c0,2.23-0.05,4.23-1.79,5.93c-2.49,2.44-2.35,5.68-2.39,8.84c-0.34,24.86-2.17,49.66-3.75,74.45
			c-0.5,7.86-0.98,15.92-3.27,23.67c-1.71,5.8-11.42,10.55-15.2,6.27c-5.2-5.9-12.69-5.98-18.67-9.67
			c-5.76-3.55-12.52-5.37-17.71-10.13c-1.42-1.3-3.82-1.93-5.83-2.08c-7.78-0.58-12.67-5.86-16.93-11.18
			c-2.87-3.57-5.47-3.73-9.09-2.79c-3.96-4.19-8.23-7.99-10.8-13.51c-1.66-3.56-6.87-3.51-9.91-3.84
			c-9.39-1.02-18.02-3.42-26.7-7.13c-3.79-1.62-8.93-1.45-13.44-2.16c-5.14-0.8-10.17-1.17-14.77,1.83
			c-2.52,1.64-3.67-0.49-4.68-1.84c-3.2-4.29-6.69-7.59-12.42-8.56c-1.43-0.24-2.91-0.42-4.18-0.17c-3.53,0.7-6.95,1.88-10.66,1.14
			c-1.86-0.37-3.13,0.45-4.23,2.26c-1.2,1.99-2.49,4.29-5.71,4.88c-4.39-5.32-11.36-3.72-17.31-5.14c-3.17-0.76-6.53,1.78-8.89,4.98
			c-3.87,5.26-7.73,5.67-12.86,1.76c-1.21-0.92-2.31-1.39-3.59-1.07c-4.51,1.12-7.98,0.13-12.11-2.56
			c-2.36-1.54-4.84-3.18-5.45-5.22c-3.79-12.66-9.36-24.74-12.07-37.76c-0.91-4.39-5.12-6.6-8.37-8.62
			c-2.98-1.85-4.88,2.05-5.62,4.51c-1.12,3.72-3.53,5.88-6.68,7.98c-4.46-5.15-7.97-10.76-9.81-16.94
			c-1.46-4.92-3.76-8.88-7.29-12.35l-0.89-1.77c-0.78,4.12-4.52,6.55-5.81,10.58c-1.14,3.56-3.86,3.35-5.7,0.05
			c-0.73-1.3-1.55-2.7-1.74-4.13c-1.29-9.84-2.89-19.66-3.51-29.55c-1.47-23.42-2.78-46.87-3.56-70.33
			c-0.94-28.56-1.45-57.13-2.32-85.7c-0.65-21.26-0.61-42.55-1.14-63.83c-0.66-26.98-0.62-53.98-1.21-80.97
			c-0.66-30.13-0.85-60.29-1.08-90.42c-0.31-40.98-1.53-81.95-1.43-122.93c0.01-4.92-0.08-9.85,0.03-14.77
			c0.07-3.19-0.34-6.11-2.98-8.27v-52.33c-0.26,0.08-0.52,0.16-0.79,0.23c-0.04,6.14-0.09,12.27-0.2,18.41
			c-0.19,10.8,0.34,21.66,0.39,32.5l-0.59,1.18c-2.16,1.87-2.97,4.24-2.98,7.09c-0.11,19.51-1.41,38.99-1.25,58.51
			c0.1,12.21-0.69,24.43-1.1,36.64c-0.03,0.79,0.08,1.76-0.33,2.34c-5.52,7.86-2.18,17.02-3.72,25.46c-0.56,3.06,0,6.03-2.29,8.97
			c-2.5,3.21-1.9,7.76-1.85,11.7c0.39,28.97-1.24,57.91-1.51,86.88c-0.18,19.69-0.63,39.4-1.12,59.1
			c-0.14,5.68,0.15,11.46-0.9,17.16c-0.47,2.56-1.11,4.75-3.05,6.48l-0.59,91.02c0-29.94,0-59.89,0-89.83l-0.59-1.18
			c-2.64-2.17-2.97-5.09-2.99-8.27c-0.14-25.22-0.24-50.43-0.66-75.65c-0.08-4.84,0.85-10.23-3.44-14.19l0.59-199.76
			c-1.71,18.3-0.57,36.64-0.58,54.96c-0.03,31.91,0.06,63.83-0.03,95.74c-0.04,15.96-0.37,31.91-0.56,47.87l-0.59,1.18
			c-2.64,2.17-3,5.08-2.99,8.27c0.07,13.79-0.01,27.58,0.06,41.37c0.02,3.19,1.03,3.7-1.61,5.86l-1.46,4.77
			c1.69-7.16-0.73-13.26-0.13-16.95c0.86-5.27-2.37-10.51-2.86-15.76l1.3,52.23c-1.71,6.42,0.53,13.08-1.18,19.5v38.42
			c-1.34,8.84-0.75,17.76-0.36,26.59c0.19,4.26,3.94,8.21,2.14,13.01l-3.55-10.64c-4.6,4.11-3.27,9.82-3.4,14.78
			c-0.55,21.66-0.02,43.36-0.89,65c-0.93,23.25-0.69,46.51-1.61,69.75c-0.69,17.33-0.7,34.71-1.93,52
			c-1.24,17.33-1.56,34.71-3.2,52.04c-1.05,11.06-1.48,22.17-3.78,33.07c-2.71,12.85-7.75,11.35-16.45,8.09
			c-3.74-1.41-7.97-1.09-11.38-3.85c-2.91-2.35-5.4-4.71-6.42-8.37v2.36c-4.21,1.43-8.15,0.03-11.15-2.46
			c-7.74-6.44-16.1-11.33-26.09-13.23c-1.24-0.24-2.74-0.3-3.53-1.46c-4.19-6.19-10.03-9.72-17.1-12.01
			c-2.54-0.82-4.1-4.37-7.16-5.09c-8.31-1.96-15.78-6.27-22.83-10.44c-7.88-4.67-15.28-10.55-22.64-16.24
			c-2.93-2.27-5.61-3.35-9.06-0.57c-4.72-6.05-11.12-9.7-17.71-12.01c-3.83-1.35-5.44-6.54-10.54-5.17
			c-3.59,0.96-5.79-1.7-8.34-3.95c-5.26-4.63-7.17-14.78-17.65-11.36c-0.12,0.04-0.39-0.36-0.58-0.56
			c-3.91-4.33-9.31-7.6-10.05-14.18v2.96c-7.09,1.45-9.51-4.78-13.65-8.67c-2.85,2.22-5.45,2.56-8.28-0.13
			c-2.38-2.26-6.75-0.91-8.8-4.21c-1.11-1.78-2.21-3.45-3.46-4.99C438.44,1148.59,610.5,1277.73,812.75,1277.73z"/>
		<path class="st2" d="M643.77,668.1l-0.05-1.99C643.68,666.78,643.7,667.44,643.77,668.1z"/>
		<path class="st2" d="M1086.28,1052.09l-0.27,2.15C1086.29,1053.46,1086.35,1052.75,1086.28,1052.09z"/>
	</g>
</g>
</svg>
