<?xml version="1.0" encoding="UTF-8"?>
<svg id="Layer_1" data-name="Layer 1" xmlns="http://www.w3.org/2000/svg" version="1.1" viewBox="0 0 1625.5 1625.5">
  <defs>
    <style>
      .cls-1 {
        fill: #50b849;
      }

      .cls-1, .cls-2, .cls-3 {
        stroke-width: 0px;
      }

      .cls-2 {
        fill: #54575f;
      }

      .cls-3 {
        fill: #fff;
      }
    </style>
  </defs>
  <circle class="cls-3" cx="812.751" cy="812.751" r="480.12"/>
  <path class="cls-2" d="M812.751,347.77c256.8,0,464.981,208.18,464.981,464.981s-208.18,464.981-464.981,464.981-464.981-208.18-464.981-464.981,208.18-464.981,464.981-464.981M812.751,322.88c-66.12,0-130.28,12.96-190.69,38.51-58.34,24.67-110.72,59.99-155.7,104.97-44.98,44.98-80.3,97.37-104.97,155.7-25.55,60.41-38.51,124.57-38.51,190.69s12.96,130.28,38.51,190.69c24.67,58.34,59.99,110.72,104.97,155.7,44.98,44.98,97.37,80.3,155.7,104.97,60.41,25.55,124.57,38.51,190.69,38.51s130.28-12.96,190.69-38.51c58.34-24.67,110.72-59.99,155.7-104.97,44.98-44.98,80.3-97.37,104.97-155.7,25.55-60.41,38.51-124.57,38.51-190.69s-12.96-130.28-38.51-190.69c-24.67-58.34-59.99-110.72-104.97-155.7-44.98-44.98-97.37-80.3-155.7-104.97-60.41-25.55-124.57-38.51-190.69-38.51h0Z"/>
  <path class="cls-1" d="M374.456,968.316c1.244,1.539,2.35,3.214,3.456,4.993,2.05,3.293,6.415,1.946,8.798,4.207,2.835,2.69,5.437,2.345,8.285.128,4.138,3.89,6.558,10.118,13.65,8.67v-2.955c.736,6.579,6.137,9.855,10.049,14.183.187.206.46.602.58.563,10.476-3.416,12.388,6.733,17.65,11.364,2.555,2.249,4.751,4.912,8.345,3.947,5.093-1.367,6.707,3.822,10.537,5.169,6.587,2.318,12.99,5.959,17.706,12.013,3.457-2.778,6.13-1.697,9.064.574,7.352,5.689,14.759,11.564,22.635,16.236,7.045,4.178,14.52,8.487,22.826,10.445,3.069.723,4.623,4.268,7.164,5.092,7.065,2.289,12.91,5.818,17.099,12.007.788,1.165,2.288,1.228,3.529,1.464,9.982,1.897,18.346,6.786,26.086,13.226,2.999,2.495,6.936,3.895,11.146,2.465v-2.364c1.022,3.658,3.519,6.023,6.425,8.37,3.415,2.758,7.638,2.441,11.381,3.847,8.695,3.266,13.737,4.761,16.449-8.086,2.301-10.898,2.738-22.01,3.783-33.071,1.637-17.326,1.959-34.704,3.198-52.039,1.235-17.291,1.246-34.666,1.933-51.999.922-23.239.678-46.499,1.611-69.747.869-21.644.337-43.341.886-65.003.126-4.959-1.203-10.674,3.395-14.779,0,0,1.406-1.135,1.408-2.374-.382-8.829-.975-17.746.365-26.586v-38.416c1.709-6.421-.528-13.082,1.182-19.504,0,0-.825-46.317.62-46.317s1.445,5.406,3.211,5.406c1.285,0,.938-16.812.868-30.602-.016-3.19.345-6.108,2.985-8.274,0,0,.636-.535,1.182,0,3.061,3.398,3.363,9.35,3.443,14.186.418,25.213.523,50.432.662,75.649.017,3.187,1.097,5.678,2.988,8.274.437.562,1.182,0,1.182,0,1.939-1.734,2.584-3.924,3.054-6.483,1.046-5.704.758-11.484.901-17.162.493-19.696.938-39.408,1.122-59.099.27-28.966,1.897-57.904,1.512-86.879-.052-3.934-.656-8.482,1.846-11.695,2.289-2.939,1.73-5.914,2.287-8.974,1.538-8.44-1.803-17.594,3.72-25.457.403-.574.3-1.546.327-2.336.408-12.214,1.201-24.432,1.099-36.642-.163-19.525,1.136-39.003,1.245-58.512.015-2.854,1.438-5.843,2.984-7.092.595-.436,1.183,0,1.183,0,2.64,2.167,3.054,5.083,2.983,8.275-.108,4.923-.018,9.85-.029,14.775-.096,40.982,1.117,81.95,1.431,122.93.231,30.137.42,60.292,1.08,90.425.59,26.992.548,53.99,1.212,80.968.523,21.279.487,42.566,1.135,63.83.87,28.565,1.381,57.139,2.32,85.699.771,23.457,2.083,46.903,3.556,70.328.621,9.886,2.221,19.713,3.509,29.549.188,1.432,1.013,2.829,1.739,4.132,1.842,3.305,4.557,3.511,5.698-.049,1.291-4.024,5.026-6.455,5.806-10.577l.887,1.773c3.532,3.47,5.824,7.437,7.288,12.354,1.839,6.183,5.352,11.79,9.808,16.943,3.152-2.103,5.557-4.261,6.678-7.98.741-2.457,2.641-6.357,5.619-4.509,3.25,2.017,7.461,4.227,8.374,8.619,2.705,13.012,8.282,25.096,12.067,37.757.608,2.034,3.083,3.682,5.445,5.217,4.138,2.687,7.6,3.675,12.113,2.558,1.281-.317,2.38.153,3.592,1.075,5.13,3.906,8.994,3.493,12.865-1.765,2.356-3.201,5.713-5.741,8.885-4.981,5.957,1.426,12.923-.179,17.313,5.141,3.214-.599,4.505-2.891,5.707-4.884,1.096-1.817,2.372-2.631,4.228-2.263,3.715.735,7.13-.441,10.664-1.14,1.265-.25,2.745-.071,4.178.173,5.729.975,9.216,4.275,12.418,8.562,1.007,1.348,2.163,3.48,4.679,1.837,4.603-3.006,9.63-2.635,14.772-1.832,4.511.705,9.654.538,13.441,2.159,8.682,3.716,17.312,6.114,26.704,7.134,3.034.33,8.247.28,9.906,3.837,2.572,5.514,6.842,9.317,10.799,13.507,3.619-.931,6.225-.776,9.093,2.794,4.268,5.316,9.154,10.593,16.933,11.176,2.011.151,4.418.784,5.833,2.08,5.195,4.755,11.956,6.572,17.711,10.125,5.974,3.689,13.466,3.768,18.667,9.667,3.776,4.281,13.485-.471,15.196-6.271,2.288-7.753,2.763-15.81,3.265-23.674,1.582-24.794,3.413-49.592,3.754-74.455.044-3.168.158-6.527,2.392-8.844,1.406-1.322,2.935-1.203,2.935-1.203,3.051,2.02,3.068,5.094,2.974,8.275-.142,4.793.722,9.31,4.458,13.37,4.139-6.025,9.199-11.192,10.988-18.666,1.967-8.22,3.299-16.568,4.367-24.88.604-4.703,1.221-9.262,4.402-9.422s7.241,13.388,8.722,20.715c3.747,18.546,4.065,37.628,8.325,56.14,0,0,1.109,4.428,4.233,4.706,3.788-1.463,4.645-5.041,5.234-8.29,2.565-14.148,4.638-28.386,7.293-42.516.736-3.922,1.917-11.138,4.615-11.251,1.076-.047,1.919.668,3.446,5.352,3.186,9.766,3.963,20.077,5.959,30.12,2.28,11.471,3.842,23.16,13.995,31.509,3.533-2.788,6.25-6.412,7.229-10.857.997-4.523,4.611-4.814,7.805-5.84,2.983-.958,4.654,1.631,5.171,3.536,3.03,11.142,13.127,16.52,19.646,24.781.736.933,1.765,1.41,2.947,1.174,8.907-1.776,19.797,1.344,24.85-10.024.211-.475.699-.92,1.169-1.175,10.539-5.715,14.133-16.985,19.649-26.282,3.229-5.441,7.369-4.226,11.137-5.471.078-.026.147-.036.223-.057l1.277-2.509c31.661-62.827,49.491-133.818,49.491-208.973,0-256.807-208.183-464.99-464.99-464.99s-464.99,208.183-464.99,464.99c0,52.518,8.707,103.003,24.755,150.089l1.93,5.447v-.004Z"/>
</svg>