<?xml version="1.0" encoding="UTF-8" standalone="no"?>
<!-- Generator: Adobe Illustrator 28.2.0, SVG Export Plug-In . SVG Version: 6.00 Build 0)  -->

<svg
   version="1.1"
   x="0px"
   y="0px"
   viewBox="0 0 1625.5 1625.5"
   style="enable-background:new 0 0 1625.5 1625.5;"
   xml:space="preserve"
   id="svg28"
   sodipodi:docname="pyEELSmodel_Icon.svg"
   inkscape:version="1.1.2 (b8e25be833, 2022-02-05)"
   xmlns:inkscape="http://www.inkscape.org/namespaces/inkscape"
   xmlns:sodipodi="http://sodipodi.sourceforge.net/DTD/sodipodi-0.dtd"
   xmlns="http://www.w3.org/2000/svg"
   xmlns:svg="http://www.w3.org/2000/svg"><defs
   id="defs32" /><sodipodi:namedview
   id="namedview30"
   pagecolor="#ffffff"
   bordercolor="#999999"
   borderopacity="1"
   inkscape:pageshadow="0"
   inkscape:pageopacity="0"
   inkscape:pagecheckerboard="0"
   showgrid="false"
   inkscape:zoom="0.26853276"
   inkscape:cx="1495.1621"
   inkscape:cy="536.24742"
   inkscape:window-width="1920"
   inkscape:window-height="1017"
   inkscape:window-x="2552"
   inkscape:window-y="-8"
   inkscape:window-maximized="1"
   inkscape:current-layer="svg28" />
<style
   type="text/css"
   id="style2">
	.st0{display:none;opacity:0.46;fill:url(#Overlay_x5F_Full_00000173874914913731859540000016577993691287629493_);}
	.st1{fill:#383B41;}
	.st2{fill:#50B849;}
	.st3{fill:#54575F;}
	.st4{fill:url(#SVGID_1_);}
	.st5{opacity:0.32;fill:#FFFFFF;}
	.st6{fill:none;stroke:#91CA62;stroke-width:2;stroke-linecap:round;stroke-miterlimit:10;}
	.st7{fill:#FFFFFF;}
	.st8{fill:url(#SVGID_00000119817705565020982010000002077654265832677259_);}
</style>
<g
   id="Logo">
	<g
   id="Corshair_copy">
	</g>
</g>
<g
   id="Text"
   transform="matrix(1.5310184,0,0,1.5310184,-420.95927,-443.30291)">
	<g
   id="g8">
		<path
   class="st2"
   d="m 663,716.82 -0.05,-1.81 c -0.03,0.61 0,1.21 0.05,1.81 z"
   id="path6" />
	</g>
	<g
   id="g12">
		<path
   class="st3"
   d="m 812.75,347.77 c 256.8,0 464.98,208.18 464.98,464.98 0,256.8 -208.18,464.98 -464.98,464.98 -256.8,0 -464.98,-208.18 -464.98,-464.98 0,-256.8 208.18,-464.98 464.98,-464.98 m 0,-24.89 c -66.12,0 -130.28,12.96 -190.69,38.51 -58.34,24.67 -110.72,59.99 -155.7,104.97 -44.98,44.98 -80.3,97.37 -104.97,155.7 -25.55,60.41 -38.51,124.57 -38.51,190.69 0,66.12 12.96,130.28 38.51,190.69 24.67,58.34 59.99,110.72 104.97,155.7 44.98,44.98 97.37,80.3 155.7,104.97 60.41,25.55 124.57,38.51 190.69,38.51 66.12,0 130.28,-12.96 190.69,-38.51 58.34,-24.67 110.72,-59.99 155.7,-104.97 44.98,-44.98 80.3,-97.37 104.97,-155.7 25.55,-60.41 38.51,-124.57 38.51,-190.69 0,-66.12 -12.96,-130.28 -38.51,-190.69 -24.67,-58.34 -59.99,-110.72 -104.97,-155.7 -44.98,-44.98 -97.37,-80.3 -155.7,-104.97 -60.41,-25.55 -124.57,-38.51 -190.69,-38.51 z"
   id="path10" />
	</g>
</g>
<g
   id="Layer_4"
   transform="matrix(1.5310184,0,0,1.5310184,-420.95927,-443.30291)">
	<g
   id="g25">
		<path
   class="st2"
   d="m 686.47,426.6 c -0.11,4.92 -0.02,9.85 -0.03,14.77 -0.1,40.98 1.12,81.95 1.43,122.93 0.23,30.14 0.42,60.29 1.08,90.42 0.59,26.99 0.55,53.99 1.21,80.97 0.52,21.28 0.49,42.57 1.14,63.83 0.87,28.56 1.38,57.14 2.32,85.7 0.77,23.46 2.08,46.9 3.56,70.33 0.62,9.89 2.22,19.71 3.51,29.55 0.19,1.43 1.01,2.83 1.74,4.13 1.84,3.31 4.56,3.51 5.7,-0.05 1.29,-4.02 5.03,-6.45 5.81,-10.58 l 0.89,1.77 c 3.53,3.47 5.82,7.44 7.29,12.35 1.84,6.18 5.35,11.79 9.81,16.94 3.15,-2.1 5.56,-4.26 6.68,-7.98 0.74,-2.46 2.64,-6.36 5.62,-4.51 3.25,2.02 7.46,4.23 8.37,8.62 2.71,13.01 8.28,25.1 12.07,37.76 0.61,2.03 3.08,3.68 5.45,5.22 4.14,2.69 7.6,3.68 12.11,2.56 1.28,-0.32 2.38,0.15 3.59,1.07 5.13,3.91 8.99,3.49 12.86,-1.76 2.36,-3.2 5.71,-5.74 8.89,-4.98 5.96,1.43 12.92,-0.18 17.31,5.14 3.21,-0.6 4.51,-2.89 5.71,-4.88 1.1,-1.82 2.37,-2.63 4.23,-2.26 3.71,0.74 7.13,-0.44 10.66,-1.14 1.27,-0.25 2.74,-0.07 4.18,0.17 5.73,0.97 9.22,4.28 12.42,8.56 1.01,1.35 2.16,3.48 4.68,1.84 4.6,-3.01 9.63,-2.64 14.77,-1.83 4.51,0.71 9.65,0.54 13.44,2.16 8.68,3.72 17.31,6.11 26.7,7.13 3.03,0.33 8.25,0.28 9.91,3.84 2.57,5.51 6.84,9.32 10.8,13.51 3.62,-0.93 6.23,-0.78 9.09,2.79 4.27,5.32 9.15,10.59 16.93,11.18 2.01,0.15 4.42,0.78 5.83,2.08 5.19,4.76 11.96,6.57 17.71,10.13 5.97,3.69 13.47,3.77 18.67,9.67 3.78,4.28 13.48,-0.47 15.2,-6.27 2.29,-7.75 2.76,-15.81 3.27,-23.67 1.58,-24.79 3.41,-49.59 3.75,-74.45 0.04,-3.17 -0.1,-6.4 2.39,-8.84 1.74,-1.7 1.79,-3.7 1.79,-5.93 0,-9.26 -1.06,-18.55 0.55,-27.78 l 0.59,32.51 c 3.05,2.02 3.07,5.09 2.97,8.27 -0.14,4.79 0.72,9.31 4.46,13.37 4.14,-6.02 9.2,-11.19 10.99,-18.67 1.97,-8.22 3.3,-16.57 4.37,-24.88 0.6,-4.7 4.23,-8.2 3.81,-12.97 l 0.59,3.55 c 7.4,4.99 7.24,13.39 8.72,20.71 3.75,18.55 4.06,37.63 8.32,56.14 0.63,2.75 3.58,4.51 3.91,7.28 l 0.32,-2.58 c 3.79,-1.46 4.64,-5.04 5.23,-8.29 2.56,-14.15 4.64,-28.39 7.29,-42.52 0.74,-3.92 0.33,-8.65 4.61,-11.25 l 0.59,-8.87 c 0.31,5 1.33,9.53 2.86,14.22 3.19,9.77 3.96,20.08 5.96,30.12 2.28,11.47 3.84,23.16 13.99,31.51 3.53,-2.79 6.25,-6.41 7.23,-10.86 1,-4.52 4.61,-4.81 7.81,-5.84 2.98,-0.96 4.65,1.63 5.17,3.54 3.03,11.14 13.13,16.52 19.65,24.78 0.74,0.93 1.76,1.41 2.95,1.17 8.91,-1.78 19.8,1.34 24.85,-10.02 0.21,-0.48 0.7,-0.92 1.17,-1.17 10.54,-5.71 14.13,-16.99 19.65,-26.28 3.23,-5.44 7.37,-4.23 11.14,-5.47 0.08,-0.03 0.15,-0.04 0.22,-0.06 32.46,-63.44 50.77,-135.32 50.77,-211.48 0,-256.8 -208.18,-464.98 -464.98,-464.98 -44.86,0 -88.22,6.37 -129.26,18.22 v 52.33 c 2.62,2.15 3.03,5.06 2.96,8.26 z"
   id="path15" />
		<path
   class="st2"
   d="m 386.71,977.48 c 2.83,2.69 5.44,2.34 8.28,0.13 4.14,3.89 6.56,10.12 13.65,8.67 v -2.96 c 0.74,6.58 6.14,9.85 10.05,14.18 0.19,0.21 0.46,0.6 0.58,0.56 10.48,-3.42 12.39,6.73 17.65,11.36 2.56,2.25 4.75,4.91 8.34,3.95 5.09,-1.37 6.71,3.82 10.54,5.17 6.59,2.32 12.99,5.96 17.71,12.01 3.46,-2.78 6.13,-1.7 9.06,0.57 7.35,5.69 14.76,11.56 22.64,16.24 7.05,4.18 14.52,8.49 22.83,10.44 3.07,0.72 4.62,4.27 7.16,5.09 7.06,2.29 12.91,5.82 17.1,12.01 0.79,1.16 2.29,1.23 3.53,1.46 9.98,1.9 18.35,6.79 26.09,13.23 3,2.5 6.94,3.89 11.15,2.46 v -2.36 c 1.02,3.66 3.52,6.02 6.42,8.37 3.41,2.76 7.64,2.44 11.38,3.85 8.69,3.27 13.74,4.76 16.45,-8.09 2.3,-10.9 2.74,-22.01 3.78,-33.07 1.64,-17.33 1.96,-34.7 3.2,-52.04 1.23,-17.29 1.25,-34.67 1.93,-52 0.92,-23.24 0.68,-46.5 1.61,-69.75 0.87,-21.64 0.34,-43.34 0.89,-65 0.13,-4.96 -1.2,-10.67 3.4,-14.78 l 3.55,10.64 c 1.8,-4.8 -1.95,-8.75 -2.14,-13.01 -0.38,-8.83 -0.98,-17.75 0.36,-26.59 V 739.8 c 1.71,-6.42 -0.53,-13.08 1.18,-19.5 l -1.3,-52.23 c -0.06,-0.66 -0.09,-1.32 -0.05,-1.99 l 0.05,1.99 c 0.49,5.25 3.72,10.49 2.86,15.76 -0.6,3.69 1.83,9.79 0.13,16.95 l 1.46,-4.77 c 2.64,-2.17 1.63,-2.67 1.61,-5.86 -0.07,-13.79 0.01,-27.58 -0.06,-41.37 -0.02,-3.19 0.35,-6.11 2.99,-8.27 l 0.59,-1.18 c 0.2,-15.96 0.52,-31.91 0.56,-47.87 0.09,-31.91 0.01,-63.83 0.03,-95.74 0.02,-18.32 -1.13,-36.66 0.58,-54.96 l -0.59,199.76 c 4.29,3.95 3.36,9.35 3.44,14.19 0.42,25.21 0.52,50.43 0.66,75.65 0.02,3.19 0.35,6.11 2.99,8.27 l 0.59,1.18 c 0,29.94 0,59.89 0,89.83 l 0.59,-91.02 c 1.94,-1.73 2.58,-3.92 3.05,-6.48 1.05,-5.7 0.76,-11.48 0.9,-17.16 0.49,-19.7 0.94,-39.41 1.12,-59.1 0.27,-28.97 1.9,-57.9 1.51,-86.88 -0.05,-3.93 -0.66,-8.48 1.85,-11.7 2.29,-2.94 1.73,-5.91 2.29,-8.97 1.54,-8.44 -1.8,-17.59 3.72,-25.46 0.4,-0.57 0.3,-1.55 0.33,-2.34 0.41,-12.21 1.2,-24.43 1.1,-36.64 -0.16,-19.52 1.14,-39 1.25,-58.51 0.02,-2.85 0.82,-5.22 2.98,-7.09 l 0.59,-1.18 c -0.05,-10.84 -0.58,-21.7 -0.39,-32.5 0.11,-6.14 0.16,-12.28 0.2,-18.41 -193.51,56.29 -334.94,234.89 -334.94,446.55 0,54.55 9.43,106.9 26.69,155.53 1.24,1.54 2.35,3.21 3.46,4.99 2.04,3.3 6.4,1.95 8.79,4.21 z"
   id="path17" />
		<path
   class="st7"
   d="m 812.75,1277.73 c 180.65,0 337.23,-103.02 414.22,-253.5 -0.08,0.02 -0.15,0.03 -0.22,0.06 -3.77,1.25 -7.91,0.03 -11.14,5.47 -5.52,9.3 -9.11,20.57 -19.65,26.28 -0.47,0.25 -0.96,0.7 -1.17,1.17 -5.05,11.37 -15.94,8.25 -24.85,10.02 -1.18,0.24 -2.21,-0.24 -2.95,-1.17 -6.52,-8.26 -16.62,-13.64 -19.65,-24.78 -0.52,-1.9 -2.19,-4.49 -5.17,-3.54 -3.19,1.03 -6.81,1.32 -7.81,5.84 -0.98,4.44 -3.7,8.07 -7.23,10.86 -10.15,-8.35 -11.71,-20.04 -13.99,-31.51 -2,-10.04 -2.77,-20.35 -5.96,-30.12 -1.53,-4.68 -2.55,-9.22 -2.86,-14.22 l -0.59,8.87 c -4.29,2.6 -3.88,7.33 -4.61,11.25 -2.65,14.13 -4.73,28.37 -7.29,42.52 -0.59,3.25 -1.45,6.83 -5.23,8.29 l -0.32,2.58 c 0.08,0.65 0.01,1.36 -0.27,2.15 l 0.27,-2.15 c -0.33,-2.77 -3.28,-4.53 -3.91,-7.28 -4.26,-18.51 -4.58,-37.59 -8.32,-56.14 -1.48,-7.33 -1.32,-15.73 -8.72,-20.71 l -0.59,-3.55 c 0.42,4.77 -3.21,8.26 -3.81,12.97 -1.07,8.31 -2.4,16.66 -4.37,24.88 -1.79,7.47 -6.85,12.64 -10.99,18.67 -3.74,-4.06 -4.6,-8.58 -4.46,-13.37 0.09,-3.18 0.08,-6.25 -2.97,-8.27 l -0.59,-32.51 c -1.61,9.23 -0.55,18.52 -0.55,27.78 0,2.23 -0.05,4.23 -1.79,5.93 -2.49,2.44 -2.35,5.68 -2.39,8.84 -0.34,24.86 -2.17,49.66 -3.75,74.45 -0.5,7.86 -0.98,15.92 -3.27,23.67 -1.71,5.8 -11.42,10.55 -15.2,6.27 -5.2,-5.9 -12.69,-5.98 -18.67,-9.67 -5.76,-3.55 -12.52,-5.37 -17.71,-10.13 -1.42,-1.3 -3.82,-1.93 -5.83,-2.08 -7.78,-0.58 -12.67,-5.86 -16.93,-11.18 -2.87,-3.57 -5.47,-3.73 -9.09,-2.79 -3.96,-4.19 -8.23,-7.99 -10.8,-13.51 -1.66,-3.56 -6.87,-3.51 -9.91,-3.84 -9.39,-1.02 -18.02,-3.42 -26.7,-7.13 -3.79,-1.62 -8.93,-1.45 -13.44,-2.16 -5.14,-0.8 -10.17,-1.17 -14.77,1.83 -2.52,1.64 -3.67,-0.49 -4.68,-1.84 -3.2,-4.29 -6.69,-7.59 -12.42,-8.56 -1.43,-0.24 -2.91,-0.42 -4.18,-0.17 -3.53,0.7 -6.95,1.88 -10.66,1.14 -1.86,-0.37 -3.13,0.45 -4.23,2.26 -1.2,1.99 -2.49,4.29 -5.71,4.88 -4.39,-5.32 -11.36,-3.72 -17.31,-5.14 -3.17,-0.76 -6.53,1.78 -8.89,4.98 -3.87,5.26 -7.73,5.67 -12.86,1.76 -1.21,-0.92 -2.31,-1.39 -3.59,-1.07 -4.51,1.12 -7.98,0.13 -12.11,-2.56 -2.36,-1.54 -4.84,-3.18 -5.45,-5.22 -3.79,-12.66 -9.36,-24.74 -12.07,-37.76 -0.91,-4.39 -5.12,-6.6 -8.37,-8.62 -2.98,-1.85 -4.88,2.05 -5.62,4.51 -1.12,3.72 -3.53,5.88 -6.68,7.98 -4.46,-5.15 -7.97,-10.76 -9.81,-16.94 -1.46,-4.92 -3.76,-8.88 -7.29,-12.35 l -0.89,-1.77 c -0.78,4.12 -4.52,6.55 -5.81,10.58 -1.14,3.56 -3.86,3.35 -5.7,0.05 -0.73,-1.3 -1.55,-2.7 -1.74,-4.13 -1.29,-9.84 -2.89,-19.66 -3.51,-29.55 -1.47,-23.42 -2.78,-46.87 -3.56,-70.33 -0.94,-28.56 -1.45,-57.13 -2.32,-85.7 -0.65,-21.26 -0.61,-42.55 -1.14,-63.83 -0.66,-26.98 -0.62,-53.98 -1.21,-80.97 -0.66,-30.13 -0.85,-60.29 -1.08,-90.42 -0.31,-40.98 -1.53,-81.95 -1.43,-122.93 0.01,-4.92 -0.08,-9.85 0.03,-14.77 0.07,-3.19 -0.34,-6.11 -2.98,-8.27 v -52.33 c -0.26,0.08 -0.52,0.16 -0.79,0.23 -0.04,6.14 -0.09,12.27 -0.2,18.41 -0.19,10.8 0.34,21.66 0.39,32.5 l -0.59,1.18 c -2.16,1.87 -2.97,4.24 -2.98,7.09 -0.11,19.51 -1.41,38.99 -1.25,58.51 0.1,12.21 -0.69,24.43 -1.1,36.64 -0.03,0.79 0.08,1.76 -0.33,2.34 -5.52,7.86 -2.18,17.02 -3.72,25.46 -0.56,3.06 0,6.03 -2.29,8.97 -2.5,3.21 -1.9,7.76 -1.85,11.7 0.39,28.97 -1.24,57.91 -1.51,86.88 -0.18,19.69 -0.63,39.4 -1.12,59.1 -0.14,5.68 0.15,11.46 -0.9,17.16 -0.47,2.56 -1.11,4.75 -3.05,6.48 l -0.59,91.02 c 0,-29.94 0,-59.89 0,-89.83 l -0.59,-1.18 c -2.64,-2.17 -2.97,-5.09 -2.99,-8.27 -0.14,-25.22 -0.24,-50.43 -0.66,-75.65 -0.08,-4.84 0.85,-10.23 -3.44,-14.19 l 0.59,-199.76 c -1.71,18.3 -0.57,36.64 -0.58,54.96 -0.03,31.91 0.06,63.83 -0.03,95.74 -0.04,15.96 -0.37,31.91 -0.56,47.87 l -0.59,1.18 c -2.64,2.17 -3,5.08 -2.99,8.27 0.07,13.79 -0.01,27.58 0.06,41.37 0.02,3.19 1.03,3.7 -1.61,5.86 l -1.46,4.77 c 1.69,-7.16 -0.73,-13.26 -0.13,-16.95 0.86,-5.27 -2.37,-10.51 -2.86,-15.76 l 1.3,52.23 c -1.71,6.42 0.53,13.08 -1.18,19.5 v 38.42 c -1.34,8.84 -0.75,17.76 -0.36,26.59 0.19,4.26 3.94,8.21 2.14,13.01 l -3.55,-10.64 c -4.6,4.11 -3.27,9.82 -3.4,14.78 -0.55,21.66 -0.02,43.36 -0.89,65 -0.93,23.25 -0.69,46.51 -1.61,69.75 -0.69,17.33 -0.7,34.71 -1.93,52 -1.24,17.33 -1.56,34.71 -3.2,52.04 -1.05,11.06 -1.48,22.17 -3.78,33.07 -2.71,12.85 -7.75,11.35 -16.45,8.09 -3.74,-1.41 -7.97,-1.09 -11.38,-3.85 -2.91,-2.35 -5.4,-4.71 -6.42,-8.37 v 2.36 c -4.21,1.43 -8.15,0.03 -11.15,-2.46 -7.74,-6.44 -16.1,-11.33 -26.09,-13.23 -1.24,-0.24 -2.74,-0.3 -3.53,-1.46 -4.19,-6.19 -10.03,-9.72 -17.1,-12.01 -2.54,-0.82 -4.1,-4.37 -7.16,-5.09 -8.31,-1.96 -15.78,-6.27 -22.83,-10.44 -7.88,-4.67 -15.28,-10.55 -22.64,-16.24 -2.93,-2.27 -5.61,-3.35 -9.06,-0.57 -4.72,-6.05 -11.12,-9.7 -17.71,-12.01 -3.83,-1.35 -5.44,-6.54 -10.54,-5.17 -3.59,0.96 -5.79,-1.7 -8.34,-3.95 -5.26,-4.63 -7.17,-14.78 -17.65,-11.36 -0.12,0.04 -0.39,-0.36 -0.58,-0.56 -3.91,-4.33 -9.31,-7.6 -10.05,-14.18 v 2.96 c -7.09,1.45 -9.51,-4.78 -13.65,-8.67 -2.85,2.22 -5.45,2.56 -8.28,-0.13 -2.38,-2.26 -6.75,-0.91 -8.8,-4.21 -1.11,-1.78 -2.21,-3.45 -3.46,-4.99 64.01,180.3 236.07,309.44 438.32,309.44 z"
   id="path19" />
		<path
   class="st2"
   d="m 643.77,668.1 -0.05,-1.99 c -0.04,0.67 -0.02,1.33 0.05,1.99 z"
   id="path21" />
		<path
   class="st2"
   d="m 1086.28,1052.09 -0.27,2.15 c 0.28,-0.78 0.34,-1.49 0.27,-2.15 z"
   id="path23" />
	</g>
</g>
</svg>
