<?xml version="1.0" encoding="UTF-8"?>
<svg id="Layer_1" data-name="Layer 1" xmlns="http://www.w3.org/2000/svg" version="1.1" viewBox="0 0 1327.071 1037.48">
  <defs>
    <style>
      .cls-1 {
        fill: #54575f;
      }

      .cls-1, .cls-2 {
        stroke-width: 0px;
      }

      .cls-2 {
        fill: #50b849;
      }
    </style>
  </defs>
  <g>
    <path class="cls-2" d="M220.713,732.739c0,15.488-5.168,28.774-15.504,39.856-10.335,11.084-23.42,16.625-39.254,16.625-7.038,0-12.756-.716-17.153-2.147-4.398-1.432-8.027-3.174-10.886-5.23h-.88v30.938c0,2.568.568,4.806,1.707,6.716,1.137,1.908,2.733,3.303,4.789,4.184,1.982.807,4.79,1.542,8.423,2.202,3.634.661,6.661,1.063,9.083,1.211v8.147h-79.603v-8.147c1.834-.148,4.146-.423,6.937-.826,2.789-.404,4.881-.826,6.275-1.266,2.349-.809,3.945-2.185,4.79-4.129.843-1.946,1.266-4.167,1.266-6.661v-112.633c-.22-2.422-.789-4.55-1.706-6.386-.919-1.834-2.367-3.449-4.35-4.845-1.469-.953-3.413-1.743-5.835-2.367-2.422-.623-4.809-1.046-7.156-1.266v-8.037l53.726-2.863,1.654,1.432v12.221l.88.22c4.837-4.917,10.208-8.734,16.108-11.45,5.901-2.715,11.747-4.074,17.539-4.074,15.173,0,27.157,5.377,35.954,16.13,8.797,10.753,13.195,24.901,13.195,42.443ZM181.187,733.179c0-5.505-.402-10.771-1.207-15.799-.806-5.027-2.233-9.523-4.284-13.487-1.979-3.963-4.595-7.119-7.854-9.469-3.258-2.348-7.23-3.523-11.914-3.523-4.761,0-8.567.826-11.424,2.477-2.855,1.651-5.345,3.798-7.468,6.441v62.427c.439,1.469,1.28,3.358,2.525,5.67,1.246,2.312,2.489,4.167,3.735,5.56,1.83,1.982,3.917,3.451,6.26,4.404,2.344.955,4.905,1.431,7.688,1.431,7.248,0,13.051-3.909,17.406-11.726,4.355-7.817,6.535-19.285,6.535-34.407Z"/>
    <path class="cls-2" d="M359.331,685.175c-3.304.515-6.516,1.762-9.634,3.744-3.121,1.982-5.708,5.064-7.763,9.249-6.313,13.36-12.81,27.58-19.487,42.664-6.681,15.083-14.093,31.397-22.24,48.939-4.553,9.835-8.956,17.688-13.213,23.562-4.257,5.872-8.257,10.386-12,13.542-3.523,2.935-7.011,5.064-10.46,6.386-3.451,1.321-6.937,1.982-10.46,1.982-6.974,0-12.606-1.946-16.9-5.835-4.294-3.892-6.44-8.257-6.44-13.102,0-2.056.237-3.963.716-5.725.477-1.762,1.484-3.597,3.025-5.505,1.174-1.616,2.988-2.992,5.447-4.129,2.456-1.139,5.226-1.707,8.307-1.707,4.108,0,8.032,1.431,11.774,4.294,3.74,2.862,7.628,6.826,11.664,11.891,2.42-2.429,5.41-6.054,8.968-10.874s6.18-9.77,7.867-14.848c-8.729-18.335-16.467-34.232-23.214-47.692-6.748-13.46-14.303-28.477-22.664-45.054-1.836-3.523-4.294-6.256-7.377-8.202-3.082-1.944-6.35-3.138-9.799-3.579v-8.037h67.382v8.037c-2.489.074-5.362.625-8.621,1.652-3.258,1.029-4.887,2.35-4.887,3.963,0,.588.109,1.23.33,1.927.22.699.623,1.705,1.209,3.023,2.493,5.125,6.032,12.243,10.614,21.357,4.583,9.114,9.916,19.782,16.003,32.007,4.542-10.393,8.407-19.34,11.595-26.842,3.188-7.5,6.284-14.875,9.288-22.122.733-1.829,1.154-3.275,1.265-4.34.11-1.063.165-1.779.165-2.147,0-1.321-.642-2.478-1.923-3.468-1.284-.991-2.803-1.853-4.561-2.587-1.831-.733-3.589-1.283-5.273-1.651-1.686-.367-3.077-.623-4.175-.771v-8.037h45.472v8.037Z"/>
  </g>
  <g>
    <path class="cls-2" d="M550.129,973.815h-84.667v-8.588c2.494-.22,5.56-.586,9.193-1.101,3.633-.513,6.11-1.063,7.432-1.651,2.715-1.101,4.66-2.604,5.835-4.514,1.174-1.908,1.762-4.33,1.762-7.267v-116.707l-53.729,137.295h-13.873c-.661-2.422-2.295-7.229-4.899-14.423-2.606-7.192-4.717-12.954-6.331-17.286l-39.526-107.348v95.017c0,9.103.606,16.02,1.817,20.754,1.211,4.734,3.174,8.202,5.89,10.404,1.834,1.542,5.12,3.011,9.854,4.404,4.734,1.396,8.055,2.202,9.964,2.422v8.588h-67.161v-8.588c1.834-.22,4.825-.716,8.974-1.486,4.146-.771,7.541-2.109,10.184-4.019,2.936-2.054,4.917-5.522,5.945-10.405,1.027-4.88,1.542-11.835,1.542-20.864v-77.401c0-4.696-.589-8.605-1.762-11.726-1.175-3.119-2.937-5.596-5.285-7.432-2.937-2.274-5.945-3.744-9.028-4.404-3.082-.661-6.203-1.101-9.358-1.321v-8.587h71.99l38.512,102.937,32.459-83.541c1.099-3.086,2.162-6.759,3.189-11.021,1.026-4.261,1.577-7.053,1.651-8.376h69.206v8.587c-2.35.148-4.808.44-7.376.881-2.57.44-5.028,1.029-7.377,1.762-2.862.955-4.753,2.46-5.67,4.514-.919,2.056-1.377,4.332-1.377,6.826v110.651c0,2.643.458,4.864,1.377,6.661.917,1.8,2.808,3.358,5.67,4.679,1.468.661,3.871,1.285,7.212,1.872,3.339.588,5.926.991,7.762,1.211v8.588Z"/>
    <path class="cls-2" d="M710.546,834.978c7.707,7.046,13.817,15.562,18.332,25.543,4.514,9.983,6.771,21.359,6.771,34.131,0,11.378-1.91,22.204-5.726,32.479-3.817,10.277-9.322,19.122-16.515,26.534-7.562,7.707-16.443,13.708-26.645,18.001-10.203,4.294-22.351,6.441-36.443,6.441-11.378,0-22.13-1.872-32.26-5.615-10.129-3.743-19.047-9.174-26.754-16.295-7.635-6.972-13.69-15.45-18.167-25.433-4.478-9.981-6.716-21.102-6.716-33.36,0-12.772,2.183-24.35,6.551-34.737,4.366-10.386,10.366-19.285,18.001-26.699,7.56-7.267,16.532-12.863,26.92-16.791,10.386-3.926,21.451-5.89,33.195-5.89,11.671,0,22.626,1.909,32.865,5.725,10.239,3.817,19.103,9.138,26.589,15.964ZM682.25,946.81c3.304-6.689,5.688-14.262,7.157-22.715,1.467-8.454,2.201-18.012,2.201-28.671,0-9.042-.643-17.845-1.927-26.409-1.284-8.563-3.468-16.191-6.551-22.882-3.156-6.688-7.341-12.056-12.551-16.099-5.213-4.043-11.709-6.066-19.488-6.066-13.286,0-23.379,6.305-30.277,18.911-6.9,12.608-10.35,30.417-10.35,53.426,0,9.778.752,19.004,2.257,27.679,1.504,8.674,3.871,16.247,7.102,22.715,3.303,6.542,7.487,11.633,12.552,15.271,5.064,3.64,11.303,5.458,18.717,5.458,7.267,0,13.505-1.837,18.717-5.514,5.211-3.675,9.359-8.71,12.441-15.106Z"/>
    <path class="cls-2" d="M891.772,833.657c9.541,6.24,17.248,14.552,23.121,24.938,5.871,10.387,8.808,23.104,8.808,38.15,0,13.212-2.625,24.717-7.872,34.517-5.249,9.799-12.204,17.819-20.864,24.057-8.808,6.24-18.81,10.883-30.002,13.928-11.194,3.047-22.92,4.569-35.178,4.569h-78.722v-8.588c2.349-.072,5.285-.292,8.809-.661,3.522-.366,5.871-.807,7.046-1.321,2.643-1.101,4.477-2.587,5.505-4.459,1.027-1.872,1.542-4.129,1.542-6.771v-110.761c0-2.495-.479-4.751-1.432-6.771-.955-2.018-2.826-3.651-5.615-4.899-2.79-1.248-5.744-2.092-8.863-2.533-3.12-.44-5.523-.733-7.211-.881v-8.587h83.126c8.88,0,18.387,1.139,28.516,3.413,10.129,2.276,19.891,6.496,29.287,12.661ZM869.311,945.629c3.596-5.872,6.221-12.863,7.872-20.974,1.651-8.11,2.478-17.451,2.478-28.021,0-10.349-1.101-19.78-3.303-28.295-2.202-8.514-5.433-15.781-9.689-21.8-4.258-6.018-9.562-10.68-15.909-13.982-6.35-3.303-13.562-4.955-21.635-4.955-2.57,0-5.488.055-8.753.165-3.267.11-5.708.203-7.321.275v118.578c0,2.643.347,4.974,1.046,6.991.696,2.02,1.889,3.799,3.578,5.34,1.688,1.542,3.761,2.735,6.221,3.579,2.458.845,5.67,1.266,9.634,1.266,8.293,0,15.414-1.542,21.359-4.625,5.945-3.083,10.752-7.597,14.423-13.542Z"/>
    <path class="cls-2" d="M1077.621,857.438h-8.368c-2.129-5.923-5.799-11.92-11.01-17.989-5.213-6.069-10.387-9.653-15.524-10.75-2.201-.513-5.268-.823-9.193-.933-3.927-.11-7.175-.165-9.743-.165h-22.681v60.225h16.074c4.036,0,7.707-.477,11.01-1.432,3.304-.953,6.312-2.789,9.028-5.505,1.688-1.688,3.395-4.66,5.12-8.918,1.724-4.256,2.844-7.963,3.357-11.12h8.368v65.179h-8.368c-.44-3.083-1.56-6.954-3.357-11.616-1.8-4.66-3.506-7.872-5.12-9.634-2.422-2.642-5.284-4.459-8.588-5.45-3.303-.991-7.12-1.486-11.45-1.486h-16.074v45.031c0,4.698.347,8.423,1.046,11.175.696,2.752,1.999,4.863,3.908,6.331,1.834,1.395,4.349,2.312,7.542,2.752,3.192.44,7.542.661,13.047.661,2.568,0,5.651-.036,9.248-.11,3.596-.072,6.753-.292,9.469-.661,3.083-.366,5.963-.917,8.644-1.651,2.678-.733,4.679-1.798,6-3.193,3.523-3.596,7.487-9.083,11.891-16.46,4.404-7.377,7.303-12.899,8.698-16.57h8.037l-2.973,48.665h-146.544v-8.588c2.055-.146,4.845-.44,8.368-.881s6.018-.953,7.486-1.542c2.789-1.173,4.66-2.659,5.615-4.459.953-1.798,1.432-4.091,1.432-6.881v-110.21c0-2.643-.404-4.826-1.211-6.551-.809-1.724-2.753-3.284-5.836-4.68-1.909-.88-4.588-1.688-8.037-2.422-3.451-.733-6.056-1.211-7.817-1.432v-8.587h138.507v39.856Z"/>
    <path class="cls-2" d="M1248.717,923.719l-3.083,50.096h-143.901v-8.588c2.568-.22,5.577-.568,9.028-1.046,3.449-.477,5.726-.936,6.826-1.376,2.643-1.027,4.477-2.458,5.505-4.294,1.027-1.833,1.542-4.184,1.542-7.046v-110.21c0-2.643-.404-4.826-1.211-6.551-.809-1.724-2.753-3.284-5.836-4.68-2.275-1.027-5.01-1.853-8.202-2.477-3.193-.623-5.744-1.082-7.652-1.376v-8.587h85.769v8.587c-2.35.22-5.12.534-8.312.936-3.193.404-5.965.974-8.312,1.707-2.862.955-4.772,2.441-5.726,4.459-.954,2.02-1.431,4.313-1.431,6.881v102.724c0,4.845.33,8.662.99,11.451.661,2.791,1.944,4.844,3.854,6.166,1.908,1.396,4.569,2.295,7.982,2.698,3.413.404,8.129.605,14.148.605,5.871,0,11.577-.348,17.12-1.046,5.541-.697,9.523-2.219,11.946-4.569,3.743-3.744,7.578-9.009,11.505-15.799,3.926-6.789,7.063-13.009,9.414-18.662h8.037Z"/>
  </g>
  <g>
    <path class="cls-1" d="M519.226,668.319h-8.368c-2.129-5.923-5.799-11.92-11.01-17.989-5.213-6.069-10.387-9.653-15.524-10.75-2.201-.513-5.268-.823-9.193-.933-3.927-.11-7.175-.165-9.743-.165h-22.681v60.225h16.074c4.036,0,7.707-.477,11.01-1.432,3.304-.953,6.312-2.789,9.028-5.505,1.688-1.688,3.395-4.66,5.12-8.918,1.724-4.256,2.844-7.963,3.357-11.12h8.368v65.179h-8.368c-.44-3.083-1.56-6.954-3.357-11.616-1.8-4.66-3.506-7.872-5.12-9.634-2.422-2.642-5.284-4.459-8.588-5.45-3.303-.991-7.12-1.486-11.45-1.486h-16.074v45.031c0,4.698.347,8.423,1.046,11.175.696,2.752,1.999,4.863,3.908,6.331,1.834,1.395,4.349,2.312,7.542,2.752,3.192.44,7.542.661,13.047.661,2.568,0,5.651-.036,9.248-.11,3.596-.072,6.753-.292,9.469-.661,3.083-.366,5.963-.917,8.644-1.651,2.678-.733,4.679-1.798,6-3.193,3.523-3.596,7.487-9.083,11.891-16.46,4.404-7.377,7.303-12.899,8.698-16.57h8.037l-2.973,48.665h-146.544v-8.588c2.055-.146,4.845-.44,8.368-.881s6.018-.953,7.486-1.542c2.789-1.173,4.66-2.659,5.615-4.459.953-1.798,1.432-4.091,1.432-6.881v-110.21c0-2.643-.404-4.826-1.211-6.551-.809-1.724-2.753-3.284-5.836-4.68-1.909-.88-4.588-1.688-8.037-2.422-3.451-.733-6.056-1.211-7.817-1.432v-8.587h138.507v39.856Z"/>
    <path class="cls-1" d="M681.844,668.319h-8.368c-2.129-5.923-5.799-11.92-11.01-17.989-5.213-6.069-10.387-9.653-15.524-10.75-2.201-.513-5.268-.823-9.193-.933-3.927-.11-7.175-.165-9.743-.165h-22.681v60.225h16.074c4.036,0,7.707-.477,11.01-1.432,3.304-.953,6.312-2.789,9.028-5.505,1.688-1.688,3.395-4.66,5.12-8.918,1.724-4.256,2.844-7.963,3.357-11.12h8.368v65.179h-8.368c-.44-3.083-1.56-6.954-3.357-11.616-1.8-4.66-3.506-7.872-5.12-9.634-2.422-2.642-5.284-4.459-8.588-5.45-3.303-.991-7.12-1.486-11.45-1.486h-16.074v45.031c0,4.698.347,8.423,1.046,11.175.696,2.752,1.999,4.863,3.908,6.331,1.834,1.395,4.349,2.312,7.542,2.752,3.192.44,7.542.661,13.047.661,2.568,0,5.651-.036,9.248-.11,3.596-.072,6.753-.292,9.469-.661,3.083-.366,5.963-.917,8.644-1.651,2.678-.733,4.679-1.798,6-3.193,3.523-3.596,7.487-9.083,11.891-16.46,4.404-7.377,7.303-12.899,8.698-16.57h8.037l-2.973,48.665h-146.544v-8.588c2.055-.146,4.845-.44,8.368-.881s6.018-.953,7.486-1.542c2.789-1.173,4.66-2.659,5.615-4.459.953-1.798,1.432-4.091,1.432-6.881v-110.21c0-2.643-.404-4.826-1.211-6.551-.809-1.724-2.753-3.284-5.836-4.68-1.909-.88-4.588-1.688-8.037-2.422-3.451-.733-6.056-1.211-7.817-1.432v-8.587h138.507v39.856Z"/>
    <path class="cls-1" d="M852.941,734.6l-3.083,50.096h-143.901v-8.588c2.568-.22,5.577-.568,9.028-1.046,3.449-.477,5.726-.936,6.826-1.376,2.643-1.027,4.477-2.458,5.505-4.294,1.027-1.833,1.542-4.184,1.542-7.046v-110.21c0-2.643-.404-4.826-1.211-6.551-.809-1.724-2.753-3.284-5.836-4.68-2.275-1.027-5.01-1.853-8.202-2.477-3.193-.623-5.744-1.082-7.652-1.376v-8.587h85.769v8.587c-2.35.22-5.12.534-8.312.936-3.193.404-5.965.974-8.312,1.707-2.862.955-4.772,2.441-5.726,4.459-.954,2.02-1.431,4.313-1.431,6.881v102.724c0,4.845.33,8.662.99,11.451.661,2.791,1.944,4.844,3.854,6.166,1.908,1.396,4.569,2.295,7.982,2.698,3.413.404,8.129.605,14.148.605,5.871,0,11.577-.348,17.12-1.046,5.541-.697,9.523-2.219,11.946-4.569,3.743-3.744,7.578-9.009,11.505-15.799,3.926-6.789,7.063-13.009,9.414-18.662h8.037Z"/>
    <path class="cls-1" d="M926.047,788.99c-9.542,0-18.441-1.194-26.699-3.578-8.258-2.385-15.249-5.192-20.974-8.423l-7.598,7.707h-9.358l-1.431-56.481h9.468c2.129,5.371,4.845,11.034,8.147,16.993,3.304,5.959,7.119,11.292,11.451,16.001,4.476,4.929,9.485,8.937,15.028,12.026,5.541,3.09,12.019,4.635,19.433,4.635,9.981,0,17.634-2.441,22.956-7.327,5.321-4.885,7.982-11.037,7.982-18.459,0-6.097-2.257-11.22-6.771-15.371-4.514-4.149-11.505-7.736-20.974-10.76-6.166-1.989-11.836-3.831-17.011-5.527s-10.038-3.429-14.588-5.199c-10.498-4.189-18.296-10.179-23.396-17.969-5.103-7.79-7.652-16.498-7.652-26.126,0-6.1,1.321-11.961,3.964-17.583,2.643-5.622,6.496-10.675,11.561-15.158,4.844-4.187,11.046-7.605,18.606-10.251,7.56-2.646,15.781-3.969,24.663-3.969,8.66,0,16.771,1.211,24.332,3.633,7.559,2.422,13.505,4.844,17.836,7.267l6.717-6.606h9.578l.881,53.289h-9.469c-2.202-5.739-4.789-11.605-7.762-17.603s-6.11-10.981-9.414-14.955c-3.597-4.267-7.744-7.669-12.441-10.208-4.697-2.538-10.203-3.807-16.515-3.807-7.927,0-14.406,2.243-19.433,6.729-5.028,4.484-7.542,10.034-7.542,16.651,0,6.25,2.183,11.359,6.551,15.33,4.366,3.971,11.176,7.463,20.424,10.477,5.431,1.837,10.973,3.675,16.625,5.512,5.651,1.837,10.68,3.602,15.084,5.292,10.642,4.117,18.734,9.795,24.277,17.035,5.541,7.239,8.312,16.225,8.312,26.954,0,6.763-1.579,13.305-4.734,19.625-3.157,6.32-7.415,11.576-12.771,15.765-5.873,4.631-12.662,8.195-20.369,10.693s-16.699,3.749-26.975,3.749Z"/>
  </g>
  <path class="cls-2" d="M566.587,256.729l-.03-1.198c-.023.399-.008.798.03,1.198Z"/>
  <path class="cls-2" d="M668.433,63.665c-154.774,0-280.243,125.469-280.243,280.243,0,31.652,5.247,62.078,14.92,90.457l1.163,3.283c.75.927,1.416,1.937,2.083,3.009,1.235,1.985,3.866,1.173,5.303,2.536,1.708,1.621,3.277,1.413,4.993.077,2.494,2.344,3.952,6.098,8.227,5.225v-1.781c.444,3.965,3.699,5.939,6.057,8.548.113.124.277.363.35.339,6.314-2.059,7.466,4.058,10.637,6.849,1.54,1.356,2.863,2.96,5.029,2.379,3.069-.824,4.042,2.303,6.351,3.115,3.97,1.397,7.829,3.591,10.671,7.24,2.083-1.674,3.694-1.023,5.463.346,4.431,3.429,8.895,6.97,13.642,9.785,4.246,2.518,8.751,5.115,13.757,6.295,1.85.436,2.786,2.573,4.318,3.069,4.258,1.38,7.781,3.506,10.305,7.236.475.702,1.379.74,2.127.882,6.016,1.144,11.057,4.09,15.722,7.971,1.808,1.504,4.18,2.347,6.718,1.486v-1.425c.616,2.204,2.121,3.63,3.872,5.045,2.058,1.662,4.604,1.471,6.859,2.319,5.24,1.968,8.279,2.869,9.914-4.874,1.387-6.568,1.65-13.265,2.28-19.932.986-10.442,1.181-20.916,1.927-31.363.744-10.421.751-20.893,1.165-31.339.556-14.006.409-28.024.971-42.035.523-13.044.203-26.121.534-39.176.076-2.989-.725-6.433,2.046-8.907,0,0,.847-.684.849-1.431-.23-5.321-.588-10.695.22-16.023v-23.153c1.03-3.87-.318-7.885.712-11.755,0,0-.497-27.915.374-27.915s.871,3.258,1.935,3.258c.774,0,.565-10.132.523-18.443-.01-1.922.208-3.681,1.799-4.987,0,0,.383-.322.712,0,1.845,2.048,2.027,5.635,2.075,8.55.252,15.196.315,30.394.399,45.593.01,1.921.661,3.422,1.801,4.987.264.339.712,0,.712,0,1.168-1.045,1.558-2.365,1.84-3.907.63-3.438.457-6.921.543-10.344.297-11.871.565-23.751.676-35.618.163-17.457,1.144-34.898.911-52.361-.031-2.371-.396-5.112,1.113-7.049,1.379-1.771,1.042-3.564,1.378-5.409.927-5.086-1.086-10.604,2.242-15.342.243-.346.181-.932.197-1.408.246-7.361.724-14.725.663-22.084-.098-11.767.685-23.507.75-35.264.009-1.72.867-3.521,1.798-4.274.359-.263.713,0,.713,0,1.591,1.306,1.84,3.063,1.798,4.987-.065,2.967-.011,5.936-.018,8.905-.058,24.699.673,49.39.862,74.088.139,18.163.253,36.337.651,54.498.355,16.268.33,32.539.73,48.798.315,12.825.293,25.654.684,38.47.524,17.216.832,34.437,1.398,51.65.465,14.137,1.255,28.268,2.143,42.386.375,5.958,1.338,11.881,2.115,17.809.113.863.61,1.705,1.048,2.49,1.11,1.992,2.747,2.116,3.434-.029.778-2.425,3.029-3.89,3.499-6.375l.535,1.069c2.128,2.092,3.51,4.482,4.392,7.445,1.108,3.726,3.226,7.105,5.911,10.211,1.899-1.267,3.349-2.568,4.025-4.809.447-1.481,1.592-3.831,3.387-2.717,1.958,1.216,4.497,2.548,5.047,5.195,1.63,7.842,4.991,15.125,7.272,22.756.367,1.226,1.858,2.219,3.282,3.144,2.494,1.62,4.581,2.215,7.3,1.542.772-.191,1.435.092,2.165.648,3.092,2.354,5.42,2.105,7.753-1.064,1.42-1.929,3.443-3.46,5.355-3.002,3.59.859,7.789-.108,10.434,3.098,1.937-.361,2.715-1.742,3.439-2.944.661-1.095,1.43-1.585,2.548-1.364,2.239.443,4.297-.266,6.427-.687.763-.151,1.654-.043,2.518.104,3.453.588,5.554,2.577,7.484,5.16.607.813,1.304,2.097,2.82,1.107,2.774-1.812,5.804-1.588,8.903-1.104,2.719.425,5.818.324,8.101,1.301,5.232,2.24,10.434,3.685,16.094,4.3,1.829.199,4.97.169,5.97,2.312,1.55,3.323,4.124,5.615,6.508,8.14,2.181-.561,3.752-.468,5.48,1.684,2.572,3.204,5.517,6.385,10.206,6.736,1.212.091,2.663.472,3.516,1.253,3.131,2.866,7.206,3.961,10.674,6.102,3.601,2.223,8.116,2.271,11.25,5.826,2.276,2.58,8.127-.284,9.158-3.78,1.379-4.673,1.665-9.529,1.968-14.268.954-14.943,2.057-29.889,2.262-44.873.026-1.909.095-3.934,1.442-5.33.847-.797,1.769-.725,1.769-.725,1.839,1.218,1.849,3.07,1.792,4.987-.085,2.889.435,5.611,2.687,8.058,2.495-3.631,5.544-6.745,6.623-11.25,1.186-4.954,1.988-9.985,2.632-14.995.364-2.835.736-5.582,2.653-5.679s4.364,8.069,5.256,12.485c2.258,11.177,2.45,22.678,5.017,33.835,0,0,.668,2.669,2.551,2.836,2.283-.882,2.799-3.038,3.154-4.996,1.546-8.527,2.795-17.108,4.396-25.624.444-2.364,1.156-6.712,2.781-6.781.648-.029,1.157.403,2.077,3.225,1.92,5.886,2.389,12.1,3.591,18.153,1.374,6.913,2.315,13.958,8.435,18.99,2.129-1.68,3.767-3.865,4.357-6.543.601-2.726,2.779-2.901,4.704-3.52,1.798-.577,2.805.983,3.117,2.131,1.826,6.715,7.912,9.956,11.84,14.935.443.562,1.063.85,1.776.708,5.368-1.07,11.932.81,14.977-6.041.127-.286.421-.554.705-.708,6.352-3.444,8.518-10.237,11.842-15.84,1.946-3.279,4.441-2.547,6.712-3.297.047-.016.089-.022.134-.034l.769-1.512c19.081-37.865,29.827-80.65,29.827-125.945,0-154.774-125.469-280.243-280.243-280.243Z"/>
</svg>